<?xml version="1.0" standalone="no"?>
<!DOCTYPE svg PUBLIC "-//W3C//DTD SVG 20010904//EN"
 "http://www.w3.org/TR/2001/REC-SVG-20010904/DTD/svg10.dtd">
<svg version="1.0" xmlns="http://www.w3.org/2000/svg"
 width="275.000000pt" height="252.000000pt" viewBox="0 0 275.000000 252.000000"
 preserveAspectRatio="xMidYMid meet">
<metadata>
Created by potrace 1.16, written by Peter Selinger 2001-2019
</metadata>
<g transform="translate(0.000000,252.000000) scale(0.100000,-0.100000)"
fill="#000000" stroke="none">
<path d="M2294 2412 c-413 -216 -740 -531 -909 -877 l-45 -93 52 -83 c185
-299 249 -595 204 -939 -8 -58 -13 -106 -11 -108 1 -2 12 23 23 55 153 438
328 913 427 1158 106 262 120 282 61 91 -19 -61 -58 -199 -86 -306 -85 -321
-144 -523 -253 -857 -57 -175 -103 -319 -102 -321 5 -6 231 111 300 155 334
215 568 531 664 896 82 310 63 591 -63 963 -47 141 -127 324 -140 324 -6 0
-61 -27 -122 -58z"/>
<path d="M96 1928 c-3 -13 -10 -59 -15 -103 -69 -567 67 -1023 406 -1369 158
-161 323 -252 548 -301 57 -12 260 -45 280 -45 5 0 -9 24 -195 330 -171 279
-389 618 -483 749 -38 51 -66 95 -64 98 5 4 229 -231 334 -352 114 -131 217
-268 299 -398 42 -67 120 -185 173 -261 l96 -140 12 65 c23 127 34 320 23 445
-28 342 -128 565 -359 795 -217 215 -533 386 -870 469 -185 46 -179 45 -185
18z"/>
</g>
</svg>
