%TF.GenerationSoftware,KiCad,Pcbnew,8.0.5*%
%TF.CreationDate,2024-10-28T11:16:19+03:00*%
%TF.ProjectId,IoTmanager,496f546d-616e-4616-9765-722e6b696361,rev?*%
%TF.SameCoordinates,Original*%
%TF.FileFunction,Copper,L2,Bot*%
%TF.FilePolarity,Positive*%
%FSLAX46Y46*%
G04 Gerber Fmt 4.6, Leading zero omitted, Abs format (unit mm)*
G04 Created by KiCad (PCBNEW 8.0.5) date 2024-10-28 11:16:19*
%MOMM*%
%LPD*%
G01*
G04 APERTURE LIST*
G04 Aperture macros list*
%AMRoundRect*
0 Rectangle with rounded corners*
0 $1 Rounding radius*
0 $2 $3 $4 $5 $6 $7 $8 $9 X,Y pos of 4 corners*
0 Add a 4 corners polygon primitive as box body*
4,1,4,$2,$3,$4,$5,$6,$7,$8,$9,$2,$3,0*
0 Add four circle primitives for the rounded corners*
1,1,$1+$1,$2,$3*
1,1,$1+$1,$4,$5*
1,1,$1+$1,$6,$7*
1,1,$1+$1,$8,$9*
0 Add four rect primitives between the rounded corners*
20,1,$1+$1,$2,$3,$4,$5,0*
20,1,$1+$1,$4,$5,$6,$7,0*
20,1,$1+$1,$6,$7,$8,$9,0*
20,1,$1+$1,$8,$9,$2,$3,0*%
G04 Aperture macros list end*
%TA.AperFunction,ComponentPad*%
%ADD10R,1.700000X1.700000*%
%TD*%
%TA.AperFunction,ComponentPad*%
%ADD11O,1.700000X1.700000*%
%TD*%
%TA.AperFunction,ComponentPad*%
%ADD12R,1.050000X1.500000*%
%TD*%
%TA.AperFunction,ComponentPad*%
%ADD13O,1.050000X1.500000*%
%TD*%
%TA.AperFunction,ComponentPad*%
%ADD14C,1.500000*%
%TD*%
%TA.AperFunction,ComponentPad*%
%ADD15R,2.000000X4.000000*%
%TD*%
%TA.AperFunction,ComponentPad*%
%ADD16R,4.000000X2.000000*%
%TD*%
%TA.AperFunction,ComponentPad*%
%ADD17C,1.440000*%
%TD*%
%TA.AperFunction,ComponentPad*%
%ADD18R,1.800000X1.800000*%
%TD*%
%TA.AperFunction,ComponentPad*%
%ADD19C,1.800000*%
%TD*%
%TA.AperFunction,ComponentPad*%
%ADD20R,2.000000X2.000000*%
%TD*%
%TA.AperFunction,ComponentPad*%
%ADD21O,2.000000X2.500000*%
%TD*%
%TA.AperFunction,ComponentPad*%
%ADD22RoundRect,0.250200X-0.649800X-0.649800X0.649800X-0.649800X0.649800X0.649800X-0.649800X0.649800X0*%
%TD*%
%TA.AperFunction,ComponentPad*%
%ADD23C,2.000000*%
%TD*%
%TA.AperFunction,ComponentPad*%
%ADD24R,2.032000X1.727200*%
%TD*%
%TA.AperFunction,ComponentPad*%
%ADD25O,2.032000X1.727200*%
%TD*%
%TA.AperFunction,SMDPad,CuDef*%
%ADD26RoundRect,0.250000X0.450000X-0.262500X0.450000X0.262500X-0.450000X0.262500X-0.450000X-0.262500X0*%
%TD*%
%TA.AperFunction,SMDPad,CuDef*%
%ADD27RoundRect,0.250000X0.350000X-0.850000X0.350000X0.850000X-0.350000X0.850000X-0.350000X-0.850000X0*%
%TD*%
%TA.AperFunction,SMDPad,CuDef*%
%ADD28RoundRect,0.250000X1.125000X-1.275000X1.125000X1.275000X-1.125000X1.275000X-1.125000X-1.275000X0*%
%TD*%
%TA.AperFunction,SMDPad,CuDef*%
%ADD29RoundRect,0.249997X2.650003X-2.950003X2.650003X2.950003X-2.650003X2.950003X-2.650003X-2.950003X0*%
%TD*%
%TA.AperFunction,SMDPad,CuDef*%
%ADD30RoundRect,0.150000X0.587500X0.150000X-0.587500X0.150000X-0.587500X-0.150000X0.587500X-0.150000X0*%
%TD*%
%TA.AperFunction,SMDPad,CuDef*%
%ADD31RoundRect,0.250000X-0.262500X-0.450000X0.262500X-0.450000X0.262500X0.450000X-0.262500X0.450000X0*%
%TD*%
%TA.AperFunction,SMDPad,CuDef*%
%ADD32RoundRect,0.250000X-0.450000X0.262500X-0.450000X-0.262500X0.450000X-0.262500X0.450000X0.262500X0*%
%TD*%
%TA.AperFunction,SMDPad,CuDef*%
%ADD33RoundRect,0.375000X0.375000X-0.625000X0.375000X0.625000X-0.375000X0.625000X-0.375000X-0.625000X0*%
%TD*%
%TA.AperFunction,SMDPad,CuDef*%
%ADD34RoundRect,0.500000X1.400000X-0.500000X1.400000X0.500000X-1.400000X0.500000X-1.400000X-0.500000X0*%
%TD*%
%TA.AperFunction,SMDPad,CuDef*%
%ADD35RoundRect,0.250000X0.262500X0.450000X-0.262500X0.450000X-0.262500X-0.450000X0.262500X-0.450000X0*%
%TD*%
%TA.AperFunction,ViaPad*%
%ADD36C,0.600000*%
%TD*%
%TA.AperFunction,Conductor*%
%ADD37C,0.500000*%
%TD*%
G04 APERTURE END LIST*
D10*
%TO.P,max1,1,Pin_1*%
%TO.N,GNDPWR*%
X98300000Y-102300000D03*
D11*
%TO.P,max1,2,Pin_2*%
%TO.N,+5C*%
X100840000Y-102300000D03*
%TO.P,max1,3,Pin_3*%
%TO.N,/d5*%
X103380000Y-102300000D03*
%TO.P,max1,4,Pin_4*%
%TO.N,/d8*%
X105920000Y-102300000D03*
%TO.P,max1,5,Pin_5*%
%TO.N,/d6*%
X108460000Y-102300000D03*
%TD*%
D12*
%TO.P,U7,1,GND*%
%TO.N,GNDPWR*%
X88000000Y-129700000D03*
D13*
%TO.P,U7,2,DQ*%
%TO.N,/d7*%
X89270000Y-129700000D03*
%TO.P,U7,3,V_{DD}*%
%TO.N,+5C*%
X90540000Y-129700000D03*
%TD*%
D10*
%TO.P,display/ads1,1,Pin_1*%
%TO.N,/d1*%
X81840000Y-121220000D03*
D11*
%TO.P,display/ads1,2,Pin_2*%
%TO.N,/d2*%
X81840000Y-118680000D03*
%TO.P,display/ads1,3,Pin_3*%
%TO.N,+5C*%
X81840000Y-116140000D03*
%TO.P,display/ads1,4,Pin_4*%
%TO.N,GNDPWR*%
X81840000Y-113600000D03*
%TD*%
D14*
%TO.P,K1,5*%
%TO.N,/conn2-5*%
X86540000Y-81260000D03*
%TO.P,K1,4*%
%TO.N,/conn2-6*%
X86540000Y-85300000D03*
%TO.P,K1,3*%
%TO.N,/conn2-4*%
X78940000Y-83800000D03*
%TO.P,K1,2*%
%TO.N,+5C*%
X86540000Y-96400000D03*
%TO.P,K1,1*%
%TO.N,Net-(Q4-C)*%
X78940000Y-96500000D03*
%TD*%
D15*
%TO.P,dc-in1,1,+12*%
%TO.N,+12C*%
X114700000Y-117700000D03*
D16*
%TO.P,dc-in1,2,conn*%
%TO.N,unconnected-(dc-in1-conn-Pad2)*%
X117700000Y-113000000D03*
D15*
%TO.P,dc-in1,3,GND*%
%TO.N,GNDPWR*%
X120900000Y-117700000D03*
%TD*%
D17*
%TO.P,RV1,1,1*%
%TO.N,/a0-in-res*%
X112460000Y-102900000D03*
%TO.P,RV1,2,2*%
%TO.N,Net-(R3-Pad1)*%
X115000000Y-102900000D03*
%TO.P,RV1,3,3*%
%TO.N,GNDPWR*%
X117540000Y-102900000D03*
%TD*%
D18*
%TO.P,D1,1,K*%
%TO.N,GNDPWR*%
X125440000Y-128400000D03*
D19*
%TO.P,D1,2,A*%
%TO.N,Net-(D1-A)*%
X122900000Y-128400000D03*
%TD*%
D20*
%TO.P,J3,1,Pin_1*%
%TO.N,/conn2-1*%
X122600000Y-60700000D03*
%TO.P,J3,2,Pin_2*%
%TO.N,/conn2-2*%
X118790000Y-60700000D03*
%TO.P,J3,3,Pin_3*%
%TO.N,/conn2-3*%
X114980000Y-60700000D03*
%TO.P,J3,4,Pin_4*%
%TO.N,/conn2-4*%
X111170000Y-60700000D03*
%TO.P,J3,5,Pin_5*%
%TO.N,/conn2-5*%
X107360000Y-60700000D03*
%TO.P,J3,6,Pin_6*%
%TO.N,/conn2-6*%
X103550000Y-60700000D03*
%TO.P,J3,7,Pin_7*%
%TO.N,/conn2-7*%
X99740000Y-60700000D03*
%TO.P,J3,8,Pin_8*%
%TO.N,/conn2-8*%
X95930000Y-60700000D03*
%TO.P,J3,9,Pin_9*%
%TO.N,/conn2-9*%
X92120000Y-60700000D03*
%TO.P,J3,10,Pin_10*%
%TO.N,/d2*%
X88310000Y-60700000D03*
%TO.P,J3,11,Pin_11*%
%TO.N,+12C*%
X84500000Y-60700000D03*
%TO.P,J3,12,Pin_12*%
%TO.N,GNDPWR*%
X80690000Y-60700000D03*
%TD*%
D21*
%TO.P,U4,1,IN-*%
%TO.N,GNDPWR*%
X114640000Y-63400000D03*
%TO.P,U4,2,IN+*%
%TO.N,+12C*%
X105500000Y-63400000D03*
%TO.P,U4,3,OUT-*%
%TO.N,GNDPWR*%
X114640000Y-78640000D03*
%TO.P,U4,4,OUT+*%
%TO.N,+5C*%
X105500000Y-78640000D03*
%TD*%
D14*
%TO.P,K4,1*%
%TO.N,Net-(Q2-C)*%
X99820000Y-96500000D03*
%TO.P,K4,2*%
%TO.N,+5C*%
X107420000Y-96400000D03*
%TO.P,K4,3*%
%TO.N,/conn2-7*%
X99820000Y-83800000D03*
%TO.P,K4,4*%
%TO.N,/conn2-9*%
X107420000Y-85300000D03*
%TO.P,K4,5*%
%TO.N,/conn2-8*%
X107420000Y-81260000D03*
%TD*%
D10*
%TO.P,J1,1,Pin_1*%
%TO.N,+3.3V*%
X89570000Y-123740000D03*
D11*
%TO.P,J1,2,Pin_2*%
%TO.N,/tx*%
X89570000Y-121200000D03*
%TO.P,J1,3,Pin_3*%
%TO.N,/rx*%
X89570000Y-118660000D03*
%TO.P,J1,4,Pin_4*%
%TO.N,/d3*%
X89570000Y-116120000D03*
%TO.P,J1,5,Pin_5*%
%TO.N,GNDPWR*%
X89570000Y-113580000D03*
%TD*%
D22*
%TO.P,U3,1,OUT*%
%TO.N,/d5*%
X114660000Y-128100000D03*
D19*
%TO.P,U3,2,Vs*%
%TO.N,+5C*%
X117200000Y-128100000D03*
%TO.P,U3,3,GND*%
%TO.N,GNDPWR*%
X119740000Y-128100000D03*
%TD*%
D23*
%TO.P,U5,1,Sleeve*%
%TO.N,GNDPWR*%
X89085000Y-107200000D03*
%TO.P,U5,2,Tip*%
%TO.N,/a0-in-res*%
X88085000Y-102800000D03*
%TO.P,U5,3,Ring1*%
%TO.N,unconnected-(U5-Ring1-Pad3)*%
X84085000Y-102800000D03*
%TO.P,U5,4,Ring2*%
%TO.N,unconnected-(U5-Ring2-Pad4)*%
X81085000Y-102800000D03*
%TD*%
D14*
%TO.P,K3-possible-d1,1*%
%TO.N,Net-(Q1-C)*%
X89340000Y-96500000D03*
%TO.P,K3-possible-d1,2*%
%TO.N,+5C*%
X96940000Y-96400000D03*
%TO.P,K3-possible-d1,3*%
%TO.N,/conn1-10*%
X89340000Y-83800000D03*
%TO.P,K3-possible-d1,4*%
%TO.N,/conn1-9*%
X96940000Y-85300000D03*
%TO.P,K3-possible-d1,5*%
%TO.N,/conn1-8*%
X96940000Y-81260000D03*
%TD*%
D20*
%TO.P,J2,1,Pin_1*%
%TO.N,GNDPWR*%
X120700000Y-108800000D03*
%TO.P,J2,2,Pin_2*%
%TO.N,+5C*%
X120700000Y-104990000D03*
%TO.P,J2,3,Pin_3*%
%TO.N,/rx*%
X120700000Y-101180000D03*
%TO.P,J2,4,Pin_4*%
%TO.N,/tx*%
X120700000Y-97370000D03*
%TO.P,J2,5,Pin_5*%
%TO.N,/d8*%
X120700000Y-93560000D03*
%TO.P,J2,6,Pin_6*%
%TO.N,/mosf1-out-d5*%
X120700000Y-89750000D03*
%TO.P,J2,7,Pin_7*%
%TO.N,/mosf2-out-d6*%
X120700000Y-85940000D03*
%TO.P,J2,8,Pin_8*%
%TO.N,/mosf3-out-d7*%
X120700000Y-82130000D03*
%TO.P,J2,9,Pin_9*%
%TO.N,/conn1-8*%
X120700000Y-78320000D03*
%TO.P,J2,10,Pin_10*%
%TO.N,/conn1-9*%
X120700000Y-74510000D03*
%TO.P,J2,11,Pin_11*%
%TO.N,/conn1-10*%
X120700000Y-70700000D03*
%TO.P,J2,12,Pin_12*%
%TO.N,/d1*%
X120700000Y-66890000D03*
%TD*%
D14*
%TO.P,K2,5*%
%TO.N,/conn2-2*%
X117740000Y-81260000D03*
%TO.P,K2,4*%
%TO.N,/conn2-3*%
X117740000Y-85300000D03*
%TO.P,K2,3*%
%TO.N,/conn2-1*%
X110140000Y-83800000D03*
%TO.P,K2,2*%
%TO.N,+5C*%
X117740000Y-96400000D03*
%TO.P,K2,1*%
%TO.N,Net-(Q3-C)*%
X110140000Y-96500000D03*
%TD*%
D24*
%TO.P,MX-RM-5V-RF-sensor1,1,Pin_1*%
%TO.N,+5C*%
X79500029Y-76540707D03*
D25*
%TO.P,MX-RM-5V-RF-sensor1,2,Pin_2*%
%TO.N,/d2*%
X79500029Y-74000707D03*
%TO.P,MX-RM-5V-RF-sensor1,3,Pin_3*%
X79500029Y-71460707D03*
%TO.P,MX-RM-5V-RF-sensor1,4,Pin_4*%
%TO.N,GNDPWR*%
X79500029Y-68920707D03*
%TD*%
D26*
%TO.P,R14,1*%
%TO.N,Net-(Q4-B)*%
X80900000Y-89000000D03*
%TO.P,R14,2*%
%TO.N,/d4*%
X80900000Y-87175000D03*
%TD*%
D27*
%TO.P,IRLR2,1,G*%
%TO.N,Net-(IRLR2-G)*%
X102845000Y-73275000D03*
D28*
%TO.P,IRLR2,2,D*%
%TO.N,/mosf1-out-d5*%
X99040000Y-68650000D03*
X102090000Y-68650000D03*
D29*
X100565000Y-66975000D03*
D28*
X99040000Y-65300000D03*
X102090000Y-65300000D03*
D27*
%TO.P,IRLR2,3,S*%
%TO.N,GNDPWR*%
X98285000Y-73275000D03*
%TD*%
%TO.P,IRLR3,1,G*%
%TO.N,Net-(IRLR3-G)*%
X88445000Y-73275000D03*
D28*
%TO.P,IRLR3,2,D*%
%TO.N,/mosf3-out-d7*%
X84640000Y-68650000D03*
X87690000Y-68650000D03*
D29*
X86165000Y-66975000D03*
D28*
X84640000Y-65300000D03*
X87690000Y-65300000D03*
D27*
%TO.P,IRLR3,3,S*%
%TO.N,GNDPWR*%
X83885000Y-73275000D03*
%TD*%
D26*
%TO.P,R17,1*%
%TO.N,Net-(Q1-B)*%
X91000000Y-89500000D03*
%TO.P,R17,2*%
%TO.N,/d3*%
X91000000Y-87675000D03*
%TD*%
%TO.P,R15,1*%
%TO.N,Net-(Q3-B)*%
X111800000Y-89825000D03*
%TO.P,R15,2*%
%TO.N,/d0*%
X111800000Y-88000000D03*
%TD*%
D30*
%TO.P,Q4,1,B*%
%TO.N,Net-(Q4-B)*%
X80900000Y-90700000D03*
%TO.P,Q4,2,E*%
%TO.N,GNDPWR*%
X80900000Y-92600000D03*
%TO.P,Q4,3,C*%
%TO.N,Net-(Q4-C)*%
X79025000Y-91650000D03*
%TD*%
D31*
%TO.P,R5,1*%
%TO.N,/d6*%
X92715000Y-78500000D03*
%TO.P,R5,2*%
%TO.N,Net-(IRLR1-G)*%
X94540000Y-78500000D03*
%TD*%
D32*
%TO.P,R10,1*%
%TO.N,+3.3V*%
X101760000Y-119855000D03*
%TO.P,R10,2*%
%TO.N,Net-(U2-~{RST})*%
X101760000Y-121680000D03*
%TD*%
%TO.P,jumper-d1,1*%
%TO.N,/conn1-8*%
X93000000Y-101675000D03*
%TO.P,jumper-d1,2*%
%TO.N,/d1*%
X93000000Y-103500000D03*
%TD*%
D31*
%TO.P,R11,1*%
%TO.N,+3.3V*%
X101675000Y-118000000D03*
%TO.P,R11,2*%
%TO.N,Net-(U2-EN)*%
X103500000Y-118000000D03*
%TD*%
D26*
%TO.P,R13,1*%
%TO.N,/d8*%
X95000000Y-103500000D03*
%TO.P,R13,2*%
%TO.N,GNDPWR*%
X95000000Y-101675000D03*
%TD*%
D31*
%TO.P,R2,1*%
%TO.N,GNDPWR*%
X99915000Y-75800000D03*
%TO.P,R2,2*%
%TO.N,Net-(IRLR2-G)*%
X101740000Y-75800000D03*
%TD*%
D27*
%TO.P,IRLR1,1,G*%
%TO.N,Net-(IRLR1-G)*%
X95640000Y-73200000D03*
D28*
%TO.P,IRLR1,2,D*%
%TO.N,/mosf2-out-d6*%
X91835000Y-68575000D03*
X94885000Y-68575000D03*
D29*
X93360000Y-66900000D03*
D28*
X91835000Y-65225000D03*
X94885000Y-65225000D03*
D27*
%TO.P,IRLR1,3,S*%
%TO.N,GNDPWR*%
X91080000Y-73200000D03*
%TD*%
D30*
%TO.P,Q3,1,B*%
%TO.N,Net-(Q3-B)*%
X111700000Y-91400000D03*
%TO.P,Q3,2,E*%
%TO.N,GNDPWR*%
X111700000Y-93300000D03*
%TO.P,Q3,3,C*%
%TO.N,Net-(Q3-C)*%
X109825000Y-92350000D03*
%TD*%
%TO.P,Q2,1,B*%
%TO.N,Net-(Q2-B)*%
X101300000Y-91200000D03*
%TO.P,Q2,2,E*%
%TO.N,GNDPWR*%
X101300000Y-93100000D03*
%TO.P,Q2,3,C*%
%TO.N,Net-(Q2-C)*%
X99425000Y-92150000D03*
%TD*%
D33*
%TO.P,U6,1,GND/ADJ*%
%TO.N,GNDPWR*%
X112940000Y-74540000D03*
%TO.P,U6,2,VOUT*%
%TO.N,+3.3V*%
X110640000Y-74540000D03*
D34*
X110640000Y-68240000D03*
D33*
%TO.P,U6,3,VIN*%
%TO.N,+5C*%
X108340000Y-74540000D03*
%TD*%
D31*
%TO.P,R8,1*%
%TO.N,/d7*%
X85915000Y-78400000D03*
%TO.P,R8,2*%
%TO.N,Net-(IRLR3-G)*%
X87740000Y-78400000D03*
%TD*%
D30*
%TO.P,Q1,1,B*%
%TO.N,Net-(Q1-B)*%
X91000000Y-91100000D03*
%TO.P,Q1,2,E*%
%TO.N,GNDPWR*%
X91000000Y-93000000D03*
%TO.P,Q1,3,C*%
%TO.N,Net-(Q1-C)*%
X89125000Y-92050000D03*
%TD*%
D31*
%TO.P,R6,1*%
%TO.N,GNDPWR*%
X92687500Y-75800000D03*
%TO.P,R6,2*%
%TO.N,Net-(IRLR1-G)*%
X94512500Y-75800000D03*
%TD*%
D35*
%TO.P,Jumper-d5,1*%
%TO.N,/d5*%
X102140000Y-78800000D03*
%TO.P,Jumper-d5,2*%
%TO.N,/mosf1-out-d5*%
X100315000Y-78800000D03*
%TD*%
D31*
%TO.P,R12,1*%
%TO.N,/d3*%
X98175000Y-118000000D03*
%TO.P,R12,2*%
%TO.N,+3.3V*%
X100000000Y-118000000D03*
%TD*%
D26*
%TO.P,R1,1*%
%TO.N,/d5*%
X98140000Y-78225000D03*
%TO.P,R1,2*%
%TO.N,Net-(IRLR2-G)*%
X98140000Y-76400000D03*
%TD*%
%TO.P,Jumper-d6,1*%
%TO.N,/d6*%
X90540000Y-77900000D03*
%TO.P,Jumper-d6,2*%
%TO.N,/mosf2-out-d6*%
X90540000Y-76075000D03*
%TD*%
%TO.P,R18,1*%
%TO.N,Net-(Q2-B)*%
X101300000Y-89600000D03*
%TO.P,R18,2*%
%TO.N,/tx*%
X101300000Y-87775000D03*
%TD*%
D31*
%TO.P,R9,1*%
%TO.N,GNDPWR*%
X85215000Y-75800000D03*
%TO.P,R9,2*%
%TO.N,Net-(IRLR3-G)*%
X87040000Y-75800000D03*
%TD*%
D26*
%TO.P,Jumper-d7,1*%
%TO.N,/d7*%
X83240000Y-78400000D03*
%TO.P,Jumper-d7,2*%
%TO.N,/mosf3-out-d7*%
X83240000Y-76575000D03*
%TD*%
%TO.P,R16,1*%
%TO.N,Net-(D1-A)*%
X102500000Y-113500000D03*
%TO.P,R16,2*%
%TO.N,/d8*%
X102500000Y-111675000D03*
%TD*%
D36*
%TO.N,/conn1-8*%
X90952800Y-93901700D03*
%TO.N,/tx*%
X108320600Y-103755900D03*
%TO.N,/rx*%
X99040600Y-114125100D03*
%TO.N,/d8*%
X102709000Y-110661500D03*
%TO.N,+3.3V*%
X108099100Y-108200000D03*
%TO.N,/d4*%
X85542400Y-94343300D03*
%TO.N,/d0*%
X113531600Y-96094300D03*
%TO.N,/d5*%
X103136200Y-81999400D03*
%TO.N,/d7*%
X103122800Y-86389700D03*
%TO.N,/d1*%
X90392100Y-111391700D03*
%TO.N,/d6*%
X102881100Y-82908800D03*
%TO.N,Net-(U2-~{RST})*%
X105700500Y-122586800D03*
%TO.N,Net-(U2-EN)*%
X107290000Y-119136200D03*
%TD*%
D37*
%TO.N,GNDPWR*%
X113478000Y-75498600D02*
X113478000Y-75498700D01*
X89616000Y-63911200D02*
X90378200Y-63149000D01*
X124790000Y-127750000D02*
X125440000Y-128400000D01*
X120800000Y-109800000D02*
X120800000Y-109550000D01*
X98285000Y-73275000D02*
X98771700Y-74329700D01*
X121650000Y-119450000D02*
X120900000Y-117700000D01*
X92240000Y-93843400D02*
X92240000Y-99034600D01*
X84379000Y-74708600D02*
X84379000Y-74337000D01*
X95817800Y-101700000D02*
X97450000Y-101700000D01*
X110961900Y-93300000D02*
X102300200Y-93300000D01*
X122165800Y-126440100D02*
X121650000Y-125924300D01*
X89570000Y-113580000D02*
X87402000Y-115748000D01*
X97760100Y-72192200D02*
X96541600Y-70973700D01*
X95000000Y-101675000D02*
X95701000Y-101675000D01*
X98285000Y-73275000D02*
X97798300Y-72220300D01*
X84872200Y-57550000D02*
X110797800Y-57550000D01*
X102100200Y-93100000D02*
X102038100Y-93100000D01*
X124540000Y-127750000D02*
X124790000Y-127750000D01*
X87776800Y-71624000D02*
X88248800Y-71624000D01*
X124540000Y-129050000D02*
X124790000Y-129050000D01*
X101290000Y-61927800D02*
X99988900Y-63228900D01*
X82472200Y-59950000D02*
X84872200Y-57550000D01*
X97450000Y-101700000D02*
X97700000Y-101700000D01*
X97376800Y-63228900D02*
X96989200Y-63616500D01*
X84476400Y-72377000D02*
X87023800Y-72377000D01*
X89616000Y-70256800D02*
X89616000Y-63911200D01*
X79940000Y-61700000D02*
X79940000Y-68633100D01*
X96541600Y-70973700D02*
X96989200Y-70526100D01*
X108910000Y-59472200D02*
X108587800Y-59150000D01*
X91669500Y-93272800D02*
X91669500Y-93272900D01*
X87840000Y-95861500D02*
X87840000Y-100363000D01*
X86505900Y-127627300D02*
X86505900Y-115748000D01*
X120505900Y-128100000D02*
X122165800Y-126440100D01*
X80690000Y-60700000D02*
X81440000Y-59950000D01*
X83885000Y-73275000D02*
X84476400Y-72377000D01*
X87725000Y-129200000D02*
X87725000Y-128950000D01*
X88742100Y-107542900D02*
X89085000Y-107200000D01*
X81840000Y-113600000D02*
X83988000Y-115748000D01*
X113480900Y-77230900D02*
X114640000Y-78390000D01*
X122990700Y-126440100D02*
X124300600Y-127750000D01*
X113347000Y-130351000D02*
X123135400Y-130351000D01*
X109810500Y-124396200D02*
X109810500Y-126814500D01*
X81690000Y-59950000D02*
X82472200Y-59950000D01*
X87725000Y-128950000D02*
X87725000Y-128846400D01*
X100683700Y-93394800D02*
X101300000Y-93100000D01*
X100683700Y-95525200D02*
X100683700Y-93394800D01*
X113480900Y-75501600D02*
X113480900Y-77230900D01*
X92871900Y-124249500D02*
X109663800Y-124249500D01*
X95792800Y-101675000D02*
X95817800Y-101700000D01*
X101290000Y-60182200D02*
X101290000Y-61927800D01*
X121650000Y-119700000D02*
X121650000Y-119450000D01*
X112720000Y-59472200D02*
X112720000Y-61230000D01*
X120800000Y-115700000D02*
X120800000Y-109800000D01*
X99988900Y-63228900D02*
X97376800Y-63228900D01*
X97770200Y-72192200D02*
X97760100Y-72192200D01*
X123135400Y-130351000D02*
X124436400Y-129050000D01*
X79940000Y-68633100D02*
X79652400Y-68920700D01*
X110842200Y-63150000D02*
X108910000Y-61217800D01*
X113478000Y-75498700D02*
X113480900Y-75501600D01*
X88275000Y-128846400D02*
X92871900Y-124249500D01*
X114640000Y-63150000D02*
X114640000Y-63400000D01*
X124790000Y-129050000D02*
X125440000Y-128400000D01*
X79652400Y-68920700D02*
X79500000Y-68920700D01*
X92288300Y-75145400D02*
X92687500Y-75800000D01*
X85215000Y-75800000D02*
X84815800Y-75145400D01*
X80690000Y-60700000D02*
X79940000Y-61450000D01*
X95701000Y-101675000D02*
X95792800Y-101675000D01*
X87078500Y-95100000D02*
X87840000Y-95861500D01*
X110797800Y-57550000D02*
X112720000Y-59472200D01*
X98900000Y-101450000D02*
X98900000Y-99258500D01*
X88275000Y-128950000D02*
X88275000Y-128846400D01*
X108587800Y-59150000D02*
X102322200Y-59150000D01*
X83988000Y-115748000D02*
X86505900Y-115748000D01*
X112940000Y-74540000D02*
X113478000Y-75498600D01*
X97798300Y-72220300D02*
X97770200Y-72192200D01*
X90378200Y-63149000D02*
X96521700Y-63149000D01*
X121650000Y-125924300D02*
X121650000Y-119700000D01*
X94413300Y-101207900D02*
X95000000Y-101675000D01*
X98900000Y-101700000D02*
X98900000Y-101450000D01*
X98771700Y-74329700D02*
X98771700Y-74401300D01*
X87402000Y-115748000D02*
X86505900Y-115748000D01*
X109810500Y-126814500D02*
X113347000Y-130351000D01*
X81610300Y-92832000D02*
X83971600Y-95193300D01*
X81440000Y-59950000D02*
X81690000Y-59950000D01*
X92240000Y-99034600D02*
X94413300Y-101207900D01*
X79940000Y-61450000D02*
X79940000Y-61700000D01*
X83971600Y-95193300D02*
X85908200Y-95193300D01*
X84379000Y-74337000D02*
X84371700Y-74329700D01*
X94205300Y-72302000D02*
X91671400Y-72302000D01*
X88000000Y-129700000D02*
X88275000Y-129200000D01*
X87840000Y-100363000D02*
X89635000Y-102158000D01*
X88000000Y-129700000D02*
X87725000Y-129200000D01*
X91080000Y-73200000D02*
X91566700Y-74254700D01*
X98300000Y-102300000D02*
X98900000Y-101700000D01*
X112720000Y-61230000D02*
X114640000Y-63150000D01*
X91566700Y-74423800D02*
X92288300Y-75145400D01*
X91566700Y-74254700D02*
X91566700Y-74423800D01*
X111700000Y-93300000D02*
X110961900Y-93300000D01*
X87023800Y-72377000D02*
X87776800Y-71624000D01*
X84371700Y-74329700D02*
X83885000Y-73275000D01*
X80900000Y-92600000D02*
X81610300Y-92832000D01*
X89635000Y-106650000D02*
X89085000Y-107200000D01*
X109663800Y-124249500D02*
X109810500Y-124396200D01*
X124300600Y-127750000D02*
X124540000Y-127750000D01*
X96989200Y-70526100D02*
X96989200Y-63616500D01*
X120900000Y-117700000D02*
X120800000Y-115950000D01*
X89635000Y-102158000D02*
X89635000Y-106650000D01*
X120800000Y-109550000D02*
X120700000Y-108800000D01*
X101120000Y-97038500D02*
X101120000Y-95961500D01*
X91000000Y-93000000D02*
X91669500Y-93272800D01*
X95533600Y-70973700D02*
X94205300Y-72302000D01*
X96521700Y-63149000D02*
X96989200Y-63616500D01*
X91669500Y-93272900D02*
X92240000Y-93843400D01*
X120800000Y-115950000D02*
X120800000Y-115700000D01*
X102300200Y-93300000D02*
X102100200Y-93100000D01*
X87725000Y-128846400D02*
X86505900Y-127627300D01*
X102038100Y-93100000D02*
X101300000Y-93100000D01*
X122165800Y-126440100D02*
X122990700Y-126440100D01*
X88248800Y-71624000D02*
X89616000Y-70256800D01*
X114640000Y-78390000D02*
X114640000Y-78640000D01*
X99515800Y-75145400D02*
X99915000Y-75800000D01*
X84815800Y-75145400D02*
X84379000Y-74708600D01*
X124436400Y-129050000D02*
X124540000Y-129050000D01*
X101120000Y-95961500D02*
X100683700Y-95525200D01*
X119740000Y-128100000D02*
X120505900Y-128100000D01*
X102322200Y-59150000D02*
X101290000Y-60182200D01*
X86001500Y-95100000D02*
X87078500Y-95100000D01*
X91671400Y-72302000D02*
X91080000Y-73200000D01*
X88742100Y-112752100D02*
X88742100Y-107542900D01*
X89570000Y-113580000D02*
X88742100Y-112752100D01*
X96541600Y-70973700D02*
X95533600Y-70973700D01*
X88275000Y-129200000D02*
X88275000Y-128950000D01*
X98771700Y-74401300D02*
X99515800Y-75145400D01*
X98900000Y-99258500D02*
X101120000Y-97038500D01*
X85908200Y-95193300D02*
X86001500Y-95100000D01*
X114640000Y-63400000D02*
X114640000Y-63150000D01*
X114640000Y-63150000D02*
X110842200Y-63150000D01*
X97700000Y-101700000D02*
X98300000Y-102300000D01*
X108910000Y-61217800D02*
X108910000Y-59472200D01*
%TO.N,/conn1-8*%
X119040000Y-81798500D02*
X118278500Y-82560000D01*
X119950000Y-79070000D02*
X119950000Y-79320000D01*
X92502000Y-101171100D02*
X91440000Y-100109100D01*
X108101500Y-84000000D02*
X106881500Y-84000000D01*
X119950000Y-79423600D02*
X119040000Y-80333600D01*
X101087000Y-83331600D02*
X101087000Y-83275200D01*
X98213000Y-82533000D02*
X96940000Y-81260000D01*
X93000000Y-101675000D02*
X92502000Y-101171100D01*
X106405100Y-84476400D02*
X102231800Y-84476400D01*
X110678500Y-82500000D02*
X109601500Y-82500000D01*
X100344800Y-82533000D02*
X98213000Y-82533000D01*
X101087000Y-83275200D02*
X100344800Y-82533000D01*
X102231800Y-84476400D02*
X101087000Y-83331600D01*
X91440000Y-100109100D02*
X91440000Y-94388900D01*
X110738500Y-82560000D02*
X110678500Y-82500000D01*
X118278500Y-82560000D02*
X110738500Y-82560000D01*
X120700000Y-78320000D02*
X119950000Y-79070000D01*
X109601500Y-82500000D02*
X108101500Y-84000000D01*
X106881500Y-84000000D02*
X106405100Y-84476400D01*
X119040000Y-80333600D02*
X119040000Y-81798500D01*
X119950000Y-79320000D02*
X119950000Y-79423600D01*
X91440000Y-94388900D02*
X90952800Y-93901700D01*
%TO.N,/tx*%
X112581600Y-86936500D02*
X113851000Y-88205900D01*
X119950000Y-96266400D02*
X119950000Y-96370000D01*
X101300000Y-87775000D02*
X102001000Y-87775000D01*
X119950000Y-96370000D02*
X119950000Y-96620000D01*
X111031900Y-86936500D02*
X112581600Y-86936500D01*
X102092800Y-87775000D02*
X102517800Y-88200000D01*
X120700000Y-97370000D02*
X119950000Y-98120000D01*
X113851000Y-88205900D02*
X113851000Y-90167400D01*
X112357600Y-99230000D02*
X109792500Y-101795100D01*
X102001000Y-87775000D02*
X102092800Y-87775000D01*
X109792500Y-102851900D02*
X108888500Y-103755900D01*
X119950000Y-96620000D02*
X120700000Y-97370000D01*
X117736700Y-99230000D02*
X112357600Y-99230000D01*
X118846700Y-98120000D02*
X117736700Y-99230000D01*
X108888500Y-103755900D02*
X108320600Y-103755900D01*
X102517800Y-88200000D02*
X109768400Y-88200000D01*
X109792500Y-101795100D02*
X109792500Y-102851900D01*
X113851000Y-90167400D02*
X119950000Y-96266400D01*
X119700000Y-98120000D02*
X118846700Y-98120000D01*
X119950000Y-98120000D02*
X119700000Y-98120000D01*
X109768400Y-88200000D02*
X111031900Y-86936500D01*
%TO.N,/conn1-9*%
X95682800Y-84042800D02*
X96940000Y-85300000D01*
X116990000Y-79863400D02*
X115153400Y-81700000D01*
X119950000Y-75510000D02*
X119950000Y-75613600D01*
X95682800Y-80739300D02*
X95682800Y-84042800D01*
X116990000Y-78573600D02*
X116990000Y-79863400D01*
X96419300Y-80002800D02*
X95682800Y-80739300D01*
X107770200Y-83200000D02*
X106550200Y-83200000D01*
X109270200Y-81700000D02*
X107770200Y-83200000D01*
X102546100Y-83717600D02*
X101854100Y-83025600D01*
X97460700Y-80002800D02*
X96419300Y-80002800D01*
X115153400Y-81700000D02*
X109270200Y-81700000D01*
X106550200Y-83200000D02*
X106032600Y-83717600D01*
X106032600Y-83717600D02*
X102546100Y-83717600D01*
X119950000Y-75260000D02*
X119950000Y-75510000D01*
X100662600Y-81765900D02*
X99223800Y-81765900D01*
X119950000Y-75613600D02*
X116990000Y-78573600D01*
X99223800Y-81765900D02*
X97460700Y-80002800D01*
X120700000Y-74510000D02*
X119950000Y-75260000D01*
X101854100Y-82957400D02*
X100662600Y-81765900D01*
X101854100Y-83025600D02*
X101854100Y-82957400D01*
%TO.N,/rx*%
X116270000Y-103426100D02*
X112346100Y-107350000D01*
X116270000Y-102373900D02*
X116270000Y-103426100D01*
X120700000Y-101180000D02*
X119950000Y-101630000D01*
X112346100Y-107350000D02*
X103687000Y-107350000D01*
X117013900Y-101630000D02*
X116270000Y-102373900D01*
X103687000Y-107350000D02*
X99040600Y-111996400D01*
X99040600Y-111996400D02*
X99040600Y-114125100D01*
X119700000Y-101630000D02*
X117013900Y-101630000D01*
X119950000Y-101630000D02*
X119700000Y-101630000D01*
%TO.N,Net-(IRLR2-G)*%
X102050500Y-74637500D02*
X102050500Y-75108600D01*
X98841700Y-76710500D02*
X98831400Y-76710500D01*
X98831400Y-76710500D02*
X98140000Y-76400000D01*
X102358300Y-74329700D02*
X102050500Y-74637500D01*
X100744400Y-77051000D02*
X99182200Y-77051000D01*
X102845000Y-73275000D02*
X102358300Y-74329700D01*
X101740000Y-75800000D02*
X101340800Y-76454600D01*
X99182200Y-77051000D02*
X98841700Y-76710500D01*
X101340800Y-76454600D02*
X100744400Y-77051000D01*
X102050500Y-75108600D02*
X101740000Y-75800000D01*
%TO.N,/mosf1-out-d5*%
X116190000Y-76242200D02*
X119472200Y-72960000D01*
X103263000Y-71373800D02*
X103996000Y-72106800D01*
X100983800Y-78124600D02*
X101675900Y-77432500D01*
X103996000Y-72106800D02*
X103996000Y-76139700D01*
X121700000Y-89000000D02*
X121450000Y-89000000D01*
X106881500Y-79960000D02*
X107958500Y-79960000D01*
X106401500Y-80440000D02*
X106881500Y-79960000D01*
X108438500Y-80440000D02*
X115282000Y-80440000D01*
X107958500Y-79960000D02*
X108438500Y-80440000D01*
X103996000Y-76139700D02*
X102703200Y-77432500D01*
X103263000Y-70166400D02*
X103263000Y-71373800D01*
X123050000Y-87753600D02*
X121803600Y-89000000D01*
X102090000Y-68650000D02*
X103263000Y-70166400D01*
X100315000Y-78800000D02*
X100714200Y-78145400D01*
X123050000Y-74082200D02*
X123050000Y-87753600D01*
X115282000Y-80440000D02*
X116190000Y-79532000D01*
X101675900Y-77432500D02*
X102703200Y-77432500D01*
X103203500Y-77932800D02*
X103203500Y-78785500D01*
X119472200Y-72960000D02*
X121927800Y-72960000D01*
X103203500Y-78785500D02*
X104858000Y-80440000D01*
X121803600Y-89000000D02*
X121700000Y-89000000D01*
X100714200Y-78145400D02*
X100735000Y-78124600D01*
X102703200Y-77432500D02*
X103203500Y-77932800D01*
X116190000Y-79532000D02*
X116190000Y-76242200D01*
X100735000Y-78124600D02*
X100983800Y-78124600D01*
X121927800Y-72960000D02*
X123050000Y-74082200D01*
X104858000Y-80440000D02*
X106401500Y-80440000D01*
X121450000Y-89000000D02*
X120700000Y-89750000D01*
%TO.N,/mosf2-out-d6*%
X110355600Y-85336500D02*
X109092100Y-86600000D01*
X120700000Y-85940000D02*
X119950000Y-86600000D01*
X89929000Y-75583600D02*
X89953300Y-75607900D01*
X119950000Y-86600000D02*
X119700000Y-86600000D01*
X96401500Y-86600000D02*
X89289000Y-79487500D01*
X98367100Y-86600000D02*
X96401500Y-86600000D01*
X89289000Y-79487500D02*
X89289000Y-77070600D01*
X103170300Y-85235100D02*
X101864200Y-85235100D01*
X91835000Y-68575000D02*
X90662000Y-70091400D01*
X114480900Y-86600000D02*
X113217400Y-85336500D01*
X89885400Y-76474200D02*
X90540000Y-76075000D01*
X119700000Y-86600000D02*
X114480900Y-86600000D01*
X113217400Y-85336500D02*
X110355600Y-85336500D01*
X89289000Y-77070600D02*
X89885400Y-76474200D01*
X99855600Y-85111500D02*
X98367100Y-86600000D01*
X89953300Y-75607900D02*
X90540000Y-76075000D01*
X101864200Y-85235100D02*
X101740600Y-85111500D01*
X90662000Y-70091400D02*
X90662000Y-70342200D01*
X89929000Y-71075200D02*
X89929000Y-75583600D01*
X101740600Y-85111500D02*
X99855600Y-85111500D01*
X90662000Y-70342200D02*
X89929000Y-71075200D01*
X104535200Y-86600000D02*
X103170300Y-85235100D01*
X109092100Y-86600000D02*
X104535200Y-86600000D01*
%TO.N,Net-(IRLR1-G)*%
X95153300Y-74254700D02*
X95640000Y-73200000D01*
X94823000Y-74585000D02*
X95153300Y-74254700D01*
X94540000Y-77799000D02*
X94540000Y-77707200D01*
X94512500Y-77679700D02*
X94512500Y-76501000D01*
X94512500Y-75800000D02*
X94823000Y-75108600D01*
X94512500Y-76501000D02*
X94512500Y-75800000D01*
X94823000Y-75108600D02*
X94823000Y-74585000D01*
X94540000Y-77707200D02*
X94512500Y-77679700D01*
X94540000Y-78500000D02*
X94540000Y-77799000D01*
%TO.N,/mosf3-out-d7*%
X83467000Y-70176800D02*
X82734000Y-70909800D01*
X94488000Y-88200000D02*
X92099500Y-85811500D01*
X102201800Y-86752700D02*
X101119000Y-86752700D01*
X88890000Y-85811500D02*
X87078500Y-84000000D01*
X83040000Y-76311500D02*
X83240000Y-76575000D01*
X101077800Y-86711500D02*
X100518400Y-86711500D01*
X122250000Y-87167800D02*
X121927800Y-87490000D01*
X81989000Y-77570600D02*
X82585400Y-76974200D01*
X122250000Y-84712200D02*
X122250000Y-87167800D01*
X102849100Y-87400000D02*
X102201800Y-86752700D01*
X82734000Y-70909800D02*
X82734000Y-75651900D01*
X121450000Y-83912200D02*
X122250000Y-84712200D01*
X87078500Y-84000000D02*
X86994900Y-84000000D01*
X120700000Y-82130000D02*
X121450000Y-82880000D01*
X83040000Y-76061500D02*
X83040000Y-76311500D01*
X83040000Y-75957900D02*
X83040000Y-76061500D01*
X82734000Y-75651900D02*
X83040000Y-75957900D01*
X99029900Y-88200000D02*
X94488000Y-88200000D01*
X112899500Y-86136500D02*
X110687000Y-86136500D01*
X121450000Y-82880000D02*
X121450000Y-83130000D01*
X114253000Y-87490000D02*
X112899500Y-86136500D01*
X81989000Y-78994100D02*
X81989000Y-77570600D01*
X86994900Y-84000000D02*
X81989000Y-78994100D01*
X110687000Y-86136500D02*
X109423500Y-87400000D01*
X109423500Y-87400000D02*
X102849100Y-87400000D01*
X82585400Y-76974200D02*
X83240000Y-76575000D01*
X92099500Y-85811500D02*
X88890000Y-85811500D01*
X83467000Y-70166400D02*
X83467000Y-70176800D01*
X101119000Y-86752700D02*
X101077800Y-86711500D01*
X121927800Y-87490000D02*
X114253000Y-87490000D01*
X121450000Y-83130000D02*
X121450000Y-83912200D01*
X84640000Y-68650000D02*
X83467000Y-70166400D01*
X100518400Y-86711500D02*
X99029900Y-88200000D01*
%TO.N,Net-(IRLR3-G)*%
X87439200Y-75145400D02*
X87446500Y-75138100D01*
X87350500Y-76491400D02*
X87040000Y-75800000D01*
X87446500Y-74841500D02*
X87958300Y-74329700D01*
X87350500Y-77629600D02*
X87350500Y-76491400D01*
X87040000Y-75800000D02*
X87439200Y-75145400D01*
X87429500Y-77708600D02*
X87350500Y-77629600D01*
X87740000Y-78400000D02*
X87429500Y-77708600D01*
X87958300Y-74329700D02*
X88445000Y-73275000D01*
X87446500Y-75138100D02*
X87446500Y-74841500D01*
%TO.N,/d2*%
X79652400Y-70919800D02*
X79652400Y-71460700D01*
X82846900Y-62428900D02*
X81066000Y-64209800D01*
X79500000Y-71460700D02*
X79500000Y-74000700D01*
X81066000Y-69506200D02*
X79652400Y-70919800D01*
X86227500Y-62428900D02*
X82846900Y-62428900D01*
X87560000Y-61450000D02*
X87310000Y-61450000D01*
X88310000Y-60700000D02*
X87560000Y-61450000D01*
X87310000Y-61450000D02*
X87206400Y-61450000D01*
X81066000Y-64209800D02*
X81066000Y-69506200D01*
X87206400Y-61450000D02*
X86227500Y-62428900D01*
X79652400Y-71460700D02*
X79500000Y-71460700D01*
%TO.N,+5C*%
X100840000Y-102300000D02*
X106740000Y-96400000D01*
X87247200Y-131000000D02*
X83240000Y-126992800D01*
X117740000Y-96400000D02*
X116340000Y-97800000D01*
X116340000Y-97800000D02*
X108820000Y-97800000D01*
X105500000Y-77629900D02*
X105500000Y-78390000D01*
X90540000Y-129925000D02*
X90540000Y-130175300D01*
X90540000Y-130175300D02*
X89715300Y-131000000D01*
X83240000Y-117540000D02*
X81840000Y-116140000D01*
X86540000Y-102537000D02*
X86540000Y-96400000D01*
X81840000Y-116140000D02*
X80440000Y-114740000D01*
X89715300Y-131000000D02*
X87247200Y-131000000D01*
X107702400Y-75427500D02*
X105500000Y-77629900D01*
X80440000Y-114740000D02*
X80440000Y-108637000D01*
X105500000Y-78390000D02*
X105500000Y-78640000D01*
X80440000Y-108637000D02*
X86540000Y-102537000D01*
X83240000Y-126992800D02*
X83240000Y-117540000D01*
X108820000Y-97800000D02*
X107420000Y-96400000D01*
X106740000Y-96400000D02*
X107420000Y-96400000D01*
X90540000Y-129700000D02*
X90540000Y-129925000D01*
X108340000Y-74540000D02*
X107702400Y-75427500D01*
%TO.N,/d8*%
X121915400Y-98890000D02*
X119165700Y-98890000D01*
X95701000Y-103500000D02*
X95792800Y-103500000D01*
X119165700Y-98890000D02*
X118025700Y-100030000D01*
X95792800Y-103500000D02*
X95992800Y-103700000D01*
X110525000Y-102098500D02*
X110525000Y-103155400D01*
X121450000Y-95342200D02*
X122250000Y-96142200D01*
X95992800Y-103700000D02*
X104520000Y-103700000D01*
X120700000Y-93560000D02*
X121450000Y-94310000D01*
X102700000Y-111411500D02*
X102700000Y-111161500D01*
X102700000Y-111161500D02*
X102700000Y-110670500D01*
X102700000Y-110670500D02*
X102709000Y-110661500D01*
X105920000Y-102557400D02*
X105920000Y-102300000D01*
X122250000Y-98555400D02*
X121915400Y-98890000D01*
X104520000Y-103700000D02*
X105920000Y-102300000D01*
X109074500Y-104605900D02*
X107968500Y-104605900D01*
X121450000Y-94560000D02*
X121450000Y-95342200D01*
X102500000Y-111675000D02*
X102700000Y-111411500D01*
X95000000Y-103500000D02*
X95701000Y-103500000D01*
X121450000Y-94310000D02*
X121450000Y-94560000D01*
X112593500Y-100030000D02*
X110525000Y-102098500D01*
X107968500Y-104605900D02*
X105920000Y-102557400D01*
X110525000Y-103155400D02*
X109074500Y-104605900D01*
X118025700Y-100030000D02*
X112593500Y-100030000D01*
X122250000Y-96142200D02*
X122250000Y-98555400D01*
%TO.N,+3.3V*%
X94979600Y-123140000D02*
X99532900Y-118586700D01*
X114712200Y-108200000D02*
X108099100Y-108200000D01*
X124650000Y-68062200D02*
X124650000Y-100007800D01*
X121217800Y-103440000D02*
X119472200Y-103440000D01*
X119472200Y-65340000D02*
X121927800Y-65340000D01*
X101675000Y-118701000D02*
X101675000Y-118000000D01*
X100000000Y-118000000D02*
X100263500Y-118000000D01*
X99532900Y-118586700D02*
X100000000Y-118000000D01*
X110640000Y-68991900D02*
X110640000Y-68240000D01*
X117245800Y-67566400D02*
X119472200Y-65340000D01*
X100263500Y-118000000D02*
X100513500Y-118000000D01*
X101675000Y-119591500D02*
X101675000Y-119341500D01*
X110640000Y-68240000D02*
X112505400Y-67566400D01*
X112505400Y-67566400D02*
X117245800Y-67566400D01*
X110640000Y-74540000D02*
X110640000Y-73788600D01*
X100000000Y-118000000D02*
X100310500Y-117308600D01*
X100513500Y-118000000D02*
X101161500Y-118000000D01*
X124650000Y-100007800D02*
X121217800Y-103440000D01*
X101161500Y-118000000D02*
X101411500Y-118000000D01*
X100310500Y-117308600D02*
X100310500Y-111857900D01*
X110640000Y-69241900D02*
X110640000Y-68991900D01*
X103968400Y-108200000D02*
X108099100Y-108200000D01*
X119472200Y-103440000D02*
X114712200Y-108200000D01*
X101760000Y-119855000D02*
X101675000Y-119591500D01*
X90170000Y-123140000D02*
X90420000Y-123140000D01*
X110640000Y-73538600D02*
X110640000Y-69241900D01*
X110640000Y-73788600D02*
X110640000Y-73538600D01*
X89570000Y-123740000D02*
X90170000Y-123140000D01*
X121927800Y-65340000D02*
X124650000Y-68062200D01*
X100310500Y-111857900D02*
X103968400Y-108200000D01*
X101675000Y-119341500D02*
X101675000Y-118701000D01*
X101411500Y-118000000D02*
X101675000Y-118000000D01*
X90420000Y-123140000D02*
X94979600Y-123140000D01*
%TO.N,/d4*%
X80900000Y-87175000D02*
X81554600Y-87574200D01*
X85542400Y-91562000D02*
X85542400Y-94343300D01*
X81554600Y-87574200D02*
X85542400Y-91562000D01*
%TO.N,/d0*%
X111800000Y-88000000D02*
X112454600Y-88399200D01*
X113788100Y-95837800D02*
X113531600Y-96094300D01*
X112454600Y-88399200D02*
X113051000Y-88995600D01*
X113051000Y-88995600D02*
X113051000Y-91799400D01*
X113051000Y-91799400D02*
X113788100Y-92536500D01*
X113788100Y-92536500D02*
X113788100Y-95837800D01*
%TO.N,/d3*%
X89572900Y-111731000D02*
X90052800Y-112210900D01*
X90640000Y-107837000D02*
X89572900Y-108904100D01*
X93743500Y-117502000D02*
X91131500Y-114890000D01*
X90640000Y-95961500D02*
X90640000Y-107837000D01*
X98175000Y-118000000D02*
X97671100Y-117502000D01*
X97671100Y-117502000D02*
X93743500Y-117502000D01*
X90137000Y-112210900D02*
X90137100Y-112210800D01*
X89572900Y-108904100D02*
X89572900Y-111731000D01*
X89570000Y-116120000D02*
X89901500Y-116120000D01*
X90137100Y-112210800D02*
X91131500Y-113205200D01*
X87836900Y-93158400D02*
X90640000Y-95961500D01*
X91000000Y-87675000D02*
X90345400Y-88074200D01*
X90052800Y-112210900D02*
X90137000Y-112210900D01*
X91131500Y-113205200D02*
X91131500Y-114890000D01*
X90345400Y-88074200D02*
X87836900Y-90582700D01*
X89901500Y-116120000D02*
X91131500Y-114890000D01*
X87836900Y-90582700D02*
X87836900Y-93158400D01*
%TO.N,/d5*%
X102140000Y-78800000D02*
X101740800Y-79454600D01*
X99748700Y-80051000D02*
X98734000Y-79036300D01*
X98734000Y-79036300D02*
X98734000Y-78699400D01*
X101144400Y-80051000D02*
X99748700Y-80051000D01*
X101740800Y-79454600D02*
X101144400Y-80051000D01*
X102140000Y-78800000D02*
X102450500Y-79491400D01*
X102450500Y-81313700D02*
X103136200Y-81999400D01*
X98734000Y-78699400D02*
X98726700Y-78692100D01*
X102450500Y-79491400D02*
X102450500Y-81313700D01*
X98726700Y-78692100D02*
X98140000Y-78225000D01*
%TO.N,/d7*%
X83941000Y-78400000D02*
X83240000Y-78400000D01*
X101491600Y-85993900D02*
X101409200Y-85911500D01*
X86418900Y-78898000D02*
X85915000Y-78400000D01*
X102727000Y-85993900D02*
X101491600Y-85993900D01*
X86513500Y-79018600D02*
X86513500Y-78982300D01*
X94894900Y-87400000D02*
X86513500Y-79018600D01*
X101409200Y-85911500D02*
X100187000Y-85911500D01*
X85651500Y-78400000D02*
X85401500Y-78400000D01*
X85915000Y-78400000D02*
X85651500Y-78400000D01*
X86513500Y-78982300D02*
X86429200Y-78898000D01*
X103122800Y-86389700D02*
X102727000Y-85993900D01*
X98698500Y-87400000D02*
X94894900Y-87400000D01*
X86429200Y-78898000D02*
X86418900Y-78898000D01*
X85401500Y-78400000D02*
X83941000Y-78400000D01*
X100187000Y-85911500D02*
X98698500Y-87400000D01*
%TO.N,/d1*%
X93000000Y-103500000D02*
X92502000Y-104003900D01*
X92502000Y-104003900D02*
X92502000Y-109281800D01*
X112829400Y-100830000D02*
X111257500Y-102401900D01*
X109310400Y-105405900D02*
X95025500Y-105405900D01*
X120700000Y-66890000D02*
X121450000Y-67640000D01*
X118314600Y-100830000D02*
X112829400Y-100830000D01*
X111257500Y-103458800D02*
X109310400Y-105405900D01*
X93586700Y-103967100D02*
X93000000Y-103500000D01*
X123850000Y-98044300D02*
X122234300Y-99660000D01*
X121450000Y-67890000D02*
X121450000Y-68672200D01*
X95025500Y-105405900D02*
X93586700Y-103967100D01*
X111257500Y-102401900D02*
X111257500Y-103458800D01*
X92502000Y-109281800D02*
X90392100Y-111391700D01*
X121450000Y-67640000D02*
X121450000Y-67890000D01*
X119484600Y-99660000D02*
X118314600Y-100830000D01*
X123850000Y-71072200D02*
X123850000Y-98044300D01*
X122234300Y-99660000D02*
X119484600Y-99660000D01*
X121450000Y-68672200D02*
X123850000Y-71072200D01*
%TO.N,/d6*%
X97774400Y-79245700D02*
X99527600Y-80998900D01*
X92715000Y-78500000D02*
X93114200Y-79154600D01*
X90540000Y-77900000D02*
X91241000Y-77900000D01*
X91332800Y-77900000D02*
X91434800Y-78002000D01*
X92211100Y-78002000D02*
X92715000Y-78500000D01*
X100980300Y-80998900D02*
X102881100Y-82899700D01*
X95600300Y-79751000D02*
X96105600Y-79245700D01*
X96105600Y-79245700D02*
X97774400Y-79245700D01*
X91434800Y-78002000D02*
X92211100Y-78002000D01*
X93114200Y-79154600D02*
X93710600Y-79751000D01*
X93710600Y-79751000D02*
X95600300Y-79751000D01*
X102881100Y-82899700D02*
X102881100Y-82908800D01*
X99527600Y-80998900D02*
X100980300Y-80998900D01*
X91241000Y-77900000D02*
X91332800Y-77900000D01*
%TO.N,Net-(U2-~{RST})*%
X101760000Y-121680000D02*
X102451400Y-121990500D01*
X102451400Y-121990500D02*
X103047700Y-122586800D01*
X103047700Y-122586800D02*
X105700500Y-122586800D01*
%TO.N,Net-(U2-EN)*%
X103500000Y-118000000D02*
X104003900Y-118498000D01*
X104642100Y-119136200D02*
X107290000Y-119136200D01*
X104003900Y-118498000D02*
X104642100Y-119136200D01*
%TO.N,/conn2-4*%
X93670000Y-61927800D02*
X93243900Y-62353900D01*
X81866000Y-64541200D02*
X81866000Y-69837600D01*
X81066000Y-81674000D02*
X78940000Y-83800000D01*
X109710000Y-59593600D02*
X109710000Y-59140800D01*
X110066400Y-59950000D02*
X109710000Y-59593600D01*
X108919200Y-58350000D02*
X95502200Y-58350000D01*
X81066000Y-70637600D02*
X81066000Y-81674000D01*
X90041900Y-62353900D02*
X89166900Y-63228900D01*
X89166900Y-63228900D02*
X83178300Y-63228900D01*
X81866000Y-69837600D02*
X81066000Y-70637600D01*
X93243900Y-62353900D02*
X90041900Y-62353900D01*
X83178300Y-63228900D02*
X81866000Y-64541200D01*
X95502200Y-58350000D02*
X93670000Y-60182200D01*
X93670000Y-60182200D02*
X93670000Y-61927800D01*
X110170000Y-59950000D02*
X110066400Y-59950000D01*
X110420000Y-59950000D02*
X110170000Y-59950000D01*
X109710000Y-59140800D02*
X108919200Y-58350000D01*
X111170000Y-60700000D02*
X110420000Y-59950000D01*
%TO.N,Net-(D1-A)*%
X102500000Y-113500000D02*
X103154600Y-113899200D01*
X121749000Y-129551000D02*
X122900000Y-128400000D01*
X107642100Y-118286200D02*
X110610500Y-121254600D01*
X107541600Y-118286200D02*
X107642100Y-118286200D01*
X110610500Y-126483100D02*
X113678400Y-129551000D01*
X103154600Y-113899200D02*
X107541600Y-118286200D01*
X113678400Y-129551000D02*
X121749000Y-129551000D01*
X110610500Y-121254600D02*
X110610500Y-126483100D01*
%TO.N,Net-(Q1-B)*%
X91000000Y-90799400D02*
X91000000Y-90013500D01*
X91000000Y-90013500D02*
X91000000Y-89763500D01*
X91000000Y-89763500D02*
X91000000Y-89500000D01*
X91000000Y-91049400D02*
X91000000Y-90799400D01*
X91000000Y-91100000D02*
X91000000Y-91049400D01*
%TO.N,Net-(Q2-B)*%
X101300000Y-91200000D02*
X101300000Y-91149400D01*
X101300000Y-91149400D02*
X101300000Y-90899400D01*
X101300000Y-89863500D02*
X101300000Y-89600000D01*
X101300000Y-90899400D02*
X101300000Y-90113500D01*
X101300000Y-90113500D02*
X101300000Y-89863500D01*
%TO.N,Net-(Q3-B)*%
X111750000Y-90088500D02*
X111800000Y-89825000D01*
X111750000Y-90338500D02*
X111750000Y-90088500D01*
X111750000Y-91099400D02*
X111750000Y-90338500D01*
X111700000Y-91400000D02*
X111750000Y-91349400D01*
X111750000Y-91349400D02*
X111750000Y-91099400D01*
%TO.N,Net-(Q4-B)*%
X80900000Y-89513500D02*
X80900000Y-89263500D01*
X80900000Y-90700000D02*
X80900000Y-90649400D01*
X80900000Y-90399400D02*
X80900000Y-89513500D01*
X80900000Y-90649400D02*
X80900000Y-90399400D01*
X80900000Y-89263500D02*
X80900000Y-89000000D01*
%TO.N,Net-(Q4-C)*%
X78940000Y-91700600D02*
X78940000Y-91950600D01*
X78940000Y-91950600D02*
X78940000Y-96500000D01*
X79025000Y-91650000D02*
X78940000Y-91700600D01*
%TO.N,Net-(Q3-C)*%
X110563100Y-92350000D02*
X112478300Y-92350000D01*
X112478300Y-92350000D02*
X112988100Y-92859800D01*
X112988100Y-93740200D02*
X110228300Y-96500000D01*
X110228300Y-96500000D02*
X110140000Y-96500000D01*
X112988100Y-92859800D02*
X112988100Y-93740200D01*
X109825000Y-92350000D02*
X110563100Y-92350000D01*
%TO.N,Net-(Q1-C)*%
X89125000Y-92050000D02*
X89863100Y-92050000D01*
X92288100Y-87118000D02*
X91781600Y-86611500D01*
X87036900Y-89793000D02*
X87036900Y-93927100D01*
X92288100Y-91540200D02*
X92288100Y-87118000D01*
X91781600Y-86611500D02*
X90218400Y-86611500D01*
X87036900Y-93927100D02*
X89340000Y-96230200D01*
X91778300Y-92050000D02*
X92288100Y-91540200D01*
X89340000Y-96230200D02*
X89340000Y-96500000D01*
X90218400Y-86611500D02*
X87036900Y-89793000D01*
X89863100Y-92050000D02*
X91778300Y-92050000D01*
%TO.N,Net-(Q2-C)*%
X99762500Y-92200600D02*
X99762500Y-92450600D01*
X99762500Y-96442500D02*
X99820000Y-96500000D01*
X99762500Y-92450600D02*
X99762500Y-96442500D01*
X99425000Y-92150000D02*
X99762500Y-92200600D01*
%TD*%
M02*
