%TF.GenerationSoftware,KiCad,Pcbnew,8.0.5*%
%TF.CreationDate,2024-10-28T11:16:19+03:00*%
%TF.ProjectId,IoTmanager,496f546d-616e-4616-9765-722e6b696361,rev?*%
%TF.SameCoordinates,Original*%
%TF.FileFunction,Soldermask,Bot*%
%TF.FilePolarity,Negative*%
%FSLAX46Y46*%
G04 Gerber Fmt 4.6, Leading zero omitted, Abs format (unit mm)*
G04 Created by KiCad (PCBNEW 8.0.5) date 2024-10-28 11:16:19*
%MOMM*%
%LPD*%
G01*
G04 APERTURE LIST*
G04 Aperture macros list*
%AMRoundRect*
0 Rectangle with rounded corners*
0 $1 Rounding radius*
0 $2 $3 $4 $5 $6 $7 $8 $9 X,Y pos of 4 corners*
0 Add a 4 corners polygon primitive as box body*
4,1,4,$2,$3,$4,$5,$6,$7,$8,$9,$2,$3,0*
0 Add four circle primitives for the rounded corners*
1,1,$1+$1,$2,$3*
1,1,$1+$1,$4,$5*
1,1,$1+$1,$6,$7*
1,1,$1+$1,$8,$9*
0 Add four rect primitives between the rounded corners*
20,1,$1+$1,$2,$3,$4,$5,0*
20,1,$1+$1,$4,$5,$6,$7,0*
20,1,$1+$1,$6,$7,$8,$9,0*
20,1,$1+$1,$8,$9,$2,$3,0*%
G04 Aperture macros list end*
%ADD10R,1.700000X1.700000*%
%ADD11O,1.700000X1.700000*%
%ADD12R,1.050000X1.500000*%
%ADD13O,1.050000X1.500000*%
%ADD14C,1.500000*%
%ADD15R,2.000000X4.000000*%
%ADD16R,4.000000X2.000000*%
%ADD17C,1.440000*%
%ADD18R,1.800000X1.800000*%
%ADD19C,1.800000*%
%ADD20R,2.000000X2.000000*%
%ADD21O,2.000000X2.500000*%
%ADD22RoundRect,0.250200X-0.649800X-0.649800X0.649800X-0.649800X0.649800X0.649800X-0.649800X0.649800X0*%
%ADD23C,2.000000*%
%ADD24R,2.032000X1.727200*%
%ADD25O,2.032000X1.727200*%
%ADD26RoundRect,0.250000X0.450000X-0.262500X0.450000X0.262500X-0.450000X0.262500X-0.450000X-0.262500X0*%
%ADD27RoundRect,0.250000X0.350000X-0.850000X0.350000X0.850000X-0.350000X0.850000X-0.350000X-0.850000X0*%
%ADD28RoundRect,0.249997X2.650003X-2.950003X2.650003X2.950003X-2.650003X2.950003X-2.650003X-2.950003X0*%
%ADD29RoundRect,0.150000X0.587500X0.150000X-0.587500X0.150000X-0.587500X-0.150000X0.587500X-0.150000X0*%
%ADD30RoundRect,0.250000X-0.262500X-0.450000X0.262500X-0.450000X0.262500X0.450000X-0.262500X0.450000X0*%
%ADD31RoundRect,0.250000X-0.450000X0.262500X-0.450000X-0.262500X0.450000X-0.262500X0.450000X0.262500X0*%
%ADD32RoundRect,0.375000X0.375000X-0.625000X0.375000X0.625000X-0.375000X0.625000X-0.375000X-0.625000X0*%
%ADD33RoundRect,0.500000X1.400000X-0.500000X1.400000X0.500000X-1.400000X0.500000X-1.400000X-0.500000X0*%
%ADD34RoundRect,0.250000X0.262500X0.450000X-0.262500X0.450000X-0.262500X-0.450000X0.262500X-0.450000X0*%
%ADD35C,0.600000*%
G04 APERTURE END LIST*
D10*
%TO.C,max1*%
X98300000Y-102300000D03*
D11*
X100840000Y-102300000D03*
X103380000Y-102300000D03*
X105920000Y-102300000D03*
X108460000Y-102300000D03*
%TD*%
D12*
%TO.C,U7*%
X88000000Y-129700000D03*
D13*
X89270000Y-129700000D03*
X90540000Y-129700000D03*
%TD*%
D10*
%TO.C,display/ads1*%
X81840000Y-121220000D03*
D11*
X81840000Y-118680000D03*
X81840000Y-116140000D03*
X81840000Y-113600000D03*
%TD*%
D14*
%TO.C,K1*%
X86540000Y-81260000D03*
X86540000Y-85300000D03*
X78940000Y-83800000D03*
X86540000Y-96400000D03*
X78940000Y-96500000D03*
%TD*%
D15*
%TO.C,dc-in1*%
X114700000Y-117700000D03*
D16*
X117700000Y-113000000D03*
D15*
X120900000Y-117700000D03*
%TD*%
D17*
%TO.C,RV1*%
X112460000Y-102900000D03*
X115000000Y-102900000D03*
X117540000Y-102900000D03*
%TD*%
D18*
%TO.C,D1*%
X125440000Y-128400000D03*
D19*
X122900000Y-128400000D03*
%TD*%
D20*
%TO.C,J3*%
X122600000Y-60700000D03*
X118790000Y-60700000D03*
X114980000Y-60700000D03*
X111170000Y-60700000D03*
X107360000Y-60700000D03*
X103550000Y-60700000D03*
X99740000Y-60700000D03*
X95930000Y-60700000D03*
X92120000Y-60700000D03*
X88310000Y-60700000D03*
X84500000Y-60700000D03*
X80690000Y-60700000D03*
%TD*%
D21*
%TO.C,U4*%
X114640000Y-63400000D03*
X105500000Y-63400000D03*
X114640000Y-78640000D03*
X105500000Y-78640000D03*
%TD*%
D14*
%TO.C,K4*%
X99820000Y-96500000D03*
X107420000Y-96400000D03*
X99820000Y-83800000D03*
X107420000Y-85300000D03*
X107420000Y-81260000D03*
%TD*%
D10*
%TO.C,J1*%
X89570000Y-123740000D03*
D11*
X89570000Y-121200000D03*
X89570000Y-118660000D03*
X89570000Y-116120000D03*
X89570000Y-113580000D03*
%TD*%
D22*
%TO.C,U3*%
X114660000Y-128100000D03*
D19*
X117200000Y-128100000D03*
X119740000Y-128100000D03*
%TD*%
D23*
%TO.C,U5*%
X89085000Y-107200000D03*
X88085000Y-102800000D03*
X84085000Y-102800000D03*
X81085000Y-102800000D03*
%TD*%
D14*
%TO.C,K3-possible-d1*%
X89340000Y-96500000D03*
X96940000Y-96400000D03*
X89340000Y-83800000D03*
X96940000Y-85300000D03*
X96940000Y-81260000D03*
%TD*%
D20*
%TO.C,J2*%
X120700000Y-108800000D03*
X120700000Y-104990000D03*
X120700000Y-101180000D03*
X120700000Y-97370000D03*
X120700000Y-93560000D03*
X120700000Y-89750000D03*
X120700000Y-85940000D03*
X120700000Y-82130000D03*
X120700000Y-78320000D03*
X120700000Y-74510000D03*
X120700000Y-70700000D03*
X120700000Y-66890000D03*
%TD*%
D14*
%TO.C,K2*%
X117740000Y-81260000D03*
X117740000Y-85300000D03*
X110140000Y-83800000D03*
X117740000Y-96400000D03*
X110140000Y-96500000D03*
%TD*%
D24*
%TO.C,MX-RM-5V-RF-sensor1*%
X79500029Y-76540707D03*
D25*
X79500029Y-74000707D03*
X79500029Y-71460707D03*
X79500029Y-68920707D03*
%TD*%
D26*
%TO.C,R14*%
X80900000Y-89000000D03*
X80900000Y-87175000D03*
%TD*%
D27*
%TO.C,IRLR2*%
X102845000Y-73275000D03*
D28*
X100565000Y-66975000D03*
D27*
X98285000Y-73275000D03*
%TD*%
%TO.C,IRLR3*%
X88445000Y-73275000D03*
D28*
X86165000Y-66975000D03*
D27*
X83885000Y-73275000D03*
%TD*%
D26*
%TO.C,R17*%
X91000000Y-89500000D03*
X91000000Y-87675000D03*
%TD*%
%TO.C,R15*%
X111800000Y-89825000D03*
X111800000Y-88000000D03*
%TD*%
D29*
%TO.C,Q4*%
X80900000Y-90700000D03*
X80900000Y-92600000D03*
X79025000Y-91650000D03*
%TD*%
D30*
%TO.C,R5*%
X92715000Y-78500000D03*
X94540000Y-78500000D03*
%TD*%
D31*
%TO.C,R10*%
X101760000Y-119855000D03*
X101760000Y-121680000D03*
%TD*%
%TO.C,jumper-d1*%
X93000000Y-101675000D03*
X93000000Y-103500000D03*
%TD*%
D30*
%TO.C,R11*%
X101675000Y-118000000D03*
X103500000Y-118000000D03*
%TD*%
D26*
%TO.C,R13*%
X95000000Y-103500000D03*
X95000000Y-101675000D03*
%TD*%
D30*
%TO.C,R2*%
X99915000Y-75800000D03*
X101740000Y-75800000D03*
%TD*%
D27*
%TO.C,IRLR1*%
X95640000Y-73200000D03*
D28*
X93360000Y-66900000D03*
D27*
X91080000Y-73200000D03*
%TD*%
D29*
%TO.C,Q3*%
X111700000Y-91400000D03*
X111700000Y-93300000D03*
X109825000Y-92350000D03*
%TD*%
%TO.C,Q2*%
X101300000Y-91200000D03*
X101300000Y-93100000D03*
X99425000Y-92150000D03*
%TD*%
D32*
%TO.C,U6*%
X112940000Y-74540000D03*
X110640000Y-74540000D03*
D33*
X110640000Y-68240000D03*
D32*
X108340000Y-74540000D03*
%TD*%
D30*
%TO.C,R8*%
X85915000Y-78400000D03*
X87740000Y-78400000D03*
%TD*%
D29*
%TO.C,Q1*%
X91000000Y-91100000D03*
X91000000Y-93000000D03*
X89125000Y-92050000D03*
%TD*%
D30*
%TO.C,R6*%
X92687500Y-75800000D03*
X94512500Y-75800000D03*
%TD*%
D34*
%TO.C,Jumper-d5*%
X102140000Y-78800000D03*
X100315000Y-78800000D03*
%TD*%
D30*
%TO.C,R12*%
X98175000Y-118000000D03*
X100000000Y-118000000D03*
%TD*%
D26*
%TO.C,R1*%
X98140000Y-78225000D03*
X98140000Y-76400000D03*
%TD*%
%TO.C,Jumper-d6*%
X90540000Y-77900000D03*
X90540000Y-76075000D03*
%TD*%
%TO.C,R18*%
X101300000Y-89600000D03*
X101300000Y-87775000D03*
%TD*%
D30*
%TO.C,R9*%
X85215000Y-75800000D03*
X87040000Y-75800000D03*
%TD*%
D26*
%TO.C,Jumper-d7*%
X83240000Y-78400000D03*
X83240000Y-76575000D03*
%TD*%
%TO.C,R16*%
X102500000Y-113500000D03*
X102500000Y-111675000D03*
%TD*%
D35*
X90952800Y-93901700D03*
X108320600Y-103755900D03*
X99040600Y-114125100D03*
X102709000Y-110661500D03*
X108099100Y-108200000D03*
X85542400Y-94343300D03*
X113531600Y-96094300D03*
X103136200Y-81999400D03*
X103122800Y-86389700D03*
X90392100Y-111391700D03*
X102881100Y-82908800D03*
X105700500Y-122586800D03*
X107290000Y-119136200D03*
M02*
