%TF.GenerationSoftware,KiCad,Pcbnew,8.0.5*%
%TF.CreationDate,2024-10-28T11:16:19+03:00*%
%TF.ProjectId,IoTmanager,496f546d-616e-4616-9765-722e6b696361,rev?*%
%TF.SameCoordinates,Original*%
%TF.FileFunction,Legend,Top*%
%TF.FilePolarity,Positive*%
%FSLAX46Y46*%
G04 Gerber Fmt 4.6, Leading zero omitted, Abs format (unit mm)*
G04 Created by KiCad (PCBNEW 8.0.5) date 2024-10-28 11:16:19*
%MOMM*%
%LPD*%
G01*
G04 APERTURE LIST*
%ADD10C,0.150000*%
%ADD11C,0.100000*%
%ADD12C,0.120000*%
%ADD13R,2.032000X1.727200*%
%ADD14O,2.032000X1.727200*%
G04 APERTURE END LIST*
D10*
X88508095Y-125594819D02*
X88508095Y-126404342D01*
X88508095Y-126404342D02*
X88555714Y-126499580D01*
X88555714Y-126499580D02*
X88603333Y-126547200D01*
X88603333Y-126547200D02*
X88698571Y-126594819D01*
X88698571Y-126594819D02*
X88889047Y-126594819D01*
X88889047Y-126594819D02*
X88984285Y-126547200D01*
X88984285Y-126547200D02*
X89031904Y-126499580D01*
X89031904Y-126499580D02*
X89079523Y-126404342D01*
X89079523Y-126404342D02*
X89079523Y-125594819D01*
X89460476Y-125594819D02*
X90127142Y-125594819D01*
X90127142Y-125594819D02*
X89698571Y-126594819D01*
X78414285Y-124754819D02*
X78414285Y-123754819D01*
X78414285Y-124707200D02*
X78319047Y-124754819D01*
X78319047Y-124754819D02*
X78128571Y-124754819D01*
X78128571Y-124754819D02*
X78033333Y-124707200D01*
X78033333Y-124707200D02*
X77985714Y-124659580D01*
X77985714Y-124659580D02*
X77938095Y-124564342D01*
X77938095Y-124564342D02*
X77938095Y-124278628D01*
X77938095Y-124278628D02*
X77985714Y-124183390D01*
X77985714Y-124183390D02*
X78033333Y-124135771D01*
X78033333Y-124135771D02*
X78128571Y-124088152D01*
X78128571Y-124088152D02*
X78319047Y-124088152D01*
X78319047Y-124088152D02*
X78414285Y-124135771D01*
X78890476Y-124754819D02*
X78890476Y-124088152D01*
X78890476Y-123754819D02*
X78842857Y-123802438D01*
X78842857Y-123802438D02*
X78890476Y-123850057D01*
X78890476Y-123850057D02*
X78938095Y-123802438D01*
X78938095Y-123802438D02*
X78890476Y-123754819D01*
X78890476Y-123754819D02*
X78890476Y-123850057D01*
X79319047Y-124707200D02*
X79414285Y-124754819D01*
X79414285Y-124754819D02*
X79604761Y-124754819D01*
X79604761Y-124754819D02*
X79699999Y-124707200D01*
X79699999Y-124707200D02*
X79747618Y-124611961D01*
X79747618Y-124611961D02*
X79747618Y-124564342D01*
X79747618Y-124564342D02*
X79699999Y-124469104D01*
X79699999Y-124469104D02*
X79604761Y-124421485D01*
X79604761Y-124421485D02*
X79461904Y-124421485D01*
X79461904Y-124421485D02*
X79366666Y-124373866D01*
X79366666Y-124373866D02*
X79319047Y-124278628D01*
X79319047Y-124278628D02*
X79319047Y-124231009D01*
X79319047Y-124231009D02*
X79366666Y-124135771D01*
X79366666Y-124135771D02*
X79461904Y-124088152D01*
X79461904Y-124088152D02*
X79604761Y-124088152D01*
X79604761Y-124088152D02*
X79699999Y-124135771D01*
X80176190Y-124088152D02*
X80176190Y-125088152D01*
X80176190Y-124135771D02*
X80271428Y-124088152D01*
X80271428Y-124088152D02*
X80461904Y-124088152D01*
X80461904Y-124088152D02*
X80557142Y-124135771D01*
X80557142Y-124135771D02*
X80604761Y-124183390D01*
X80604761Y-124183390D02*
X80652380Y-124278628D01*
X80652380Y-124278628D02*
X80652380Y-124564342D01*
X80652380Y-124564342D02*
X80604761Y-124659580D01*
X80604761Y-124659580D02*
X80557142Y-124707200D01*
X80557142Y-124707200D02*
X80461904Y-124754819D01*
X80461904Y-124754819D02*
X80271428Y-124754819D01*
X80271428Y-124754819D02*
X80176190Y-124707200D01*
X81223809Y-124754819D02*
X81128571Y-124707200D01*
X81128571Y-124707200D02*
X81080952Y-124611961D01*
X81080952Y-124611961D02*
X81080952Y-123754819D01*
X82033333Y-124754819D02*
X82033333Y-124231009D01*
X82033333Y-124231009D02*
X81985714Y-124135771D01*
X81985714Y-124135771D02*
X81890476Y-124088152D01*
X81890476Y-124088152D02*
X81700000Y-124088152D01*
X81700000Y-124088152D02*
X81604762Y-124135771D01*
X82033333Y-124707200D02*
X81938095Y-124754819D01*
X81938095Y-124754819D02*
X81700000Y-124754819D01*
X81700000Y-124754819D02*
X81604762Y-124707200D01*
X81604762Y-124707200D02*
X81557143Y-124611961D01*
X81557143Y-124611961D02*
X81557143Y-124516723D01*
X81557143Y-124516723D02*
X81604762Y-124421485D01*
X81604762Y-124421485D02*
X81700000Y-124373866D01*
X81700000Y-124373866D02*
X81938095Y-124373866D01*
X81938095Y-124373866D02*
X82033333Y-124326247D01*
X82414286Y-124088152D02*
X82652381Y-124754819D01*
X82890476Y-124088152D02*
X82652381Y-124754819D01*
X82652381Y-124754819D02*
X82557143Y-124992914D01*
X82557143Y-124992914D02*
X82509524Y-125040533D01*
X82509524Y-125040533D02*
X82414286Y-125088152D01*
X83985714Y-123707200D02*
X83128572Y-124992914D01*
X84747619Y-124754819D02*
X84747619Y-124231009D01*
X84747619Y-124231009D02*
X84700000Y-124135771D01*
X84700000Y-124135771D02*
X84604762Y-124088152D01*
X84604762Y-124088152D02*
X84414286Y-124088152D01*
X84414286Y-124088152D02*
X84319048Y-124135771D01*
X84747619Y-124707200D02*
X84652381Y-124754819D01*
X84652381Y-124754819D02*
X84414286Y-124754819D01*
X84414286Y-124754819D02*
X84319048Y-124707200D01*
X84319048Y-124707200D02*
X84271429Y-124611961D01*
X84271429Y-124611961D02*
X84271429Y-124516723D01*
X84271429Y-124516723D02*
X84319048Y-124421485D01*
X84319048Y-124421485D02*
X84414286Y-124373866D01*
X84414286Y-124373866D02*
X84652381Y-124373866D01*
X84652381Y-124373866D02*
X84747619Y-124326247D01*
X85652381Y-124754819D02*
X85652381Y-123754819D01*
X85652381Y-124707200D02*
X85557143Y-124754819D01*
X85557143Y-124754819D02*
X85366667Y-124754819D01*
X85366667Y-124754819D02*
X85271429Y-124707200D01*
X85271429Y-124707200D02*
X85223810Y-124659580D01*
X85223810Y-124659580D02*
X85176191Y-124564342D01*
X85176191Y-124564342D02*
X85176191Y-124278628D01*
X85176191Y-124278628D02*
X85223810Y-124183390D01*
X85223810Y-124183390D02*
X85271429Y-124135771D01*
X85271429Y-124135771D02*
X85366667Y-124088152D01*
X85366667Y-124088152D02*
X85557143Y-124088152D01*
X85557143Y-124088152D02*
X85652381Y-124135771D01*
X86080953Y-124707200D02*
X86176191Y-124754819D01*
X86176191Y-124754819D02*
X86366667Y-124754819D01*
X86366667Y-124754819D02*
X86461905Y-124707200D01*
X86461905Y-124707200D02*
X86509524Y-124611961D01*
X86509524Y-124611961D02*
X86509524Y-124564342D01*
X86509524Y-124564342D02*
X86461905Y-124469104D01*
X86461905Y-124469104D02*
X86366667Y-124421485D01*
X86366667Y-124421485D02*
X86223810Y-124421485D01*
X86223810Y-124421485D02*
X86128572Y-124373866D01*
X86128572Y-124373866D02*
X86080953Y-124278628D01*
X86080953Y-124278628D02*
X86080953Y-124231009D01*
X86080953Y-124231009D02*
X86128572Y-124135771D01*
X86128572Y-124135771D02*
X86223810Y-124088152D01*
X86223810Y-124088152D02*
X86366667Y-124088152D01*
X86366667Y-124088152D02*
X86461905Y-124135771D01*
X87461905Y-124754819D02*
X86890477Y-124754819D01*
X87176191Y-124754819D02*
X87176191Y-123754819D01*
X87176191Y-123754819D02*
X87080953Y-123897676D01*
X87080953Y-123897676D02*
X86985715Y-123992914D01*
X86985715Y-123992914D02*
X86890477Y-124040533D01*
D11*
X78857419Y-99438094D02*
X77857419Y-99438094D01*
X78857419Y-98866666D02*
X78285990Y-99295237D01*
X77857419Y-98866666D02*
X78428847Y-99438094D01*
X78857419Y-97914285D02*
X78857419Y-98485713D01*
X78857419Y-98199999D02*
X77857419Y-98199999D01*
X77857419Y-98199999D02*
X78000276Y-98295237D01*
X78000276Y-98295237D02*
X78095514Y-98390475D01*
X78095514Y-98390475D02*
X78143133Y-98485713D01*
X113699999Y-120142580D02*
X113699999Y-121142580D01*
X113699999Y-120190200D02*
X113795237Y-120142580D01*
X113795237Y-120142580D02*
X113985713Y-120142580D01*
X113985713Y-120142580D02*
X114080951Y-120190200D01*
X114080951Y-120190200D02*
X114128570Y-120237819D01*
X114128570Y-120237819D02*
X114176189Y-120333057D01*
X114176189Y-120333057D02*
X114176189Y-120618771D01*
X114176189Y-120618771D02*
X114128570Y-120714009D01*
X114128570Y-120714009D02*
X114080951Y-120761628D01*
X114080951Y-120761628D02*
X113985713Y-120809247D01*
X113985713Y-120809247D02*
X113795237Y-120809247D01*
X113795237Y-120809247D02*
X113699999Y-120761628D01*
X112795237Y-120190200D02*
X112890475Y-120142580D01*
X112890475Y-120142580D02*
X113080951Y-120142580D01*
X113080951Y-120142580D02*
X113176189Y-120190200D01*
X113176189Y-120190200D02*
X113223808Y-120237819D01*
X113223808Y-120237819D02*
X113271427Y-120333057D01*
X113271427Y-120333057D02*
X113271427Y-120618771D01*
X113271427Y-120618771D02*
X113223808Y-120714009D01*
X113223808Y-120714009D02*
X113176189Y-120761628D01*
X113176189Y-120761628D02*
X113080951Y-120809247D01*
X113080951Y-120809247D02*
X112890475Y-120809247D01*
X112890475Y-120809247D02*
X112795237Y-120761628D01*
X112366665Y-120523533D02*
X111604761Y-120523533D01*
X111128570Y-120142580D02*
X111128570Y-120809247D01*
X111128570Y-121142580D02*
X111176189Y-121094961D01*
X111176189Y-121094961D02*
X111128570Y-121047342D01*
X111128570Y-121047342D02*
X111080951Y-121094961D01*
X111080951Y-121094961D02*
X111128570Y-121142580D01*
X111128570Y-121142580D02*
X111128570Y-121047342D01*
X110652380Y-120809247D02*
X110652380Y-120142580D01*
X110652380Y-120714009D02*
X110604761Y-120761628D01*
X110604761Y-120761628D02*
X110509523Y-120809247D01*
X110509523Y-120809247D02*
X110366666Y-120809247D01*
X110366666Y-120809247D02*
X110271428Y-120761628D01*
X110271428Y-120761628D02*
X110223809Y-120666390D01*
X110223809Y-120666390D02*
X110223809Y-120142580D01*
X109223809Y-120142580D02*
X109795237Y-120142580D01*
X109509523Y-120142580D02*
X109509523Y-121142580D01*
X109509523Y-121142580D02*
X109604761Y-120999723D01*
X109604761Y-120999723D02*
X109699999Y-120904485D01*
X109699999Y-120904485D02*
X109795237Y-120856866D01*
D10*
X117404761Y-107054819D02*
X117071428Y-106578628D01*
X116833333Y-107054819D02*
X116833333Y-106054819D01*
X116833333Y-106054819D02*
X117214285Y-106054819D01*
X117214285Y-106054819D02*
X117309523Y-106102438D01*
X117309523Y-106102438D02*
X117357142Y-106150057D01*
X117357142Y-106150057D02*
X117404761Y-106245295D01*
X117404761Y-106245295D02*
X117404761Y-106388152D01*
X117404761Y-106388152D02*
X117357142Y-106483390D01*
X117357142Y-106483390D02*
X117309523Y-106531009D01*
X117309523Y-106531009D02*
X117214285Y-106578628D01*
X117214285Y-106578628D02*
X116833333Y-106578628D01*
X117690476Y-106054819D02*
X118023809Y-107054819D01*
X118023809Y-107054819D02*
X118357142Y-106054819D01*
X119214285Y-107054819D02*
X118642857Y-107054819D01*
X118928571Y-107054819D02*
X118928571Y-106054819D01*
X118928571Y-106054819D02*
X118833333Y-106197676D01*
X118833333Y-106197676D02*
X118738095Y-106292914D01*
X118738095Y-106292914D02*
X118642857Y-106340533D01*
X123661905Y-130854819D02*
X123661905Y-129854819D01*
X123661905Y-129854819D02*
X123900000Y-129854819D01*
X123900000Y-129854819D02*
X124042857Y-129902438D01*
X124042857Y-129902438D02*
X124138095Y-129997676D01*
X124138095Y-129997676D02*
X124185714Y-130092914D01*
X124185714Y-130092914D02*
X124233333Y-130283390D01*
X124233333Y-130283390D02*
X124233333Y-130426247D01*
X124233333Y-130426247D02*
X124185714Y-130616723D01*
X124185714Y-130616723D02*
X124138095Y-130711961D01*
X124138095Y-130711961D02*
X124042857Y-130807200D01*
X124042857Y-130807200D02*
X123900000Y-130854819D01*
X123900000Y-130854819D02*
X123661905Y-130854819D01*
X125185714Y-130854819D02*
X124614286Y-130854819D01*
X124900000Y-130854819D02*
X124900000Y-129854819D01*
X124900000Y-129854819D02*
X124804762Y-129997676D01*
X124804762Y-129997676D02*
X124709524Y-130092914D01*
X124709524Y-130092914D02*
X124614286Y-130140533D01*
X113038095Y-124814819D02*
X113038095Y-125624342D01*
X113038095Y-125624342D02*
X113085714Y-125719580D01*
X113085714Y-125719580D02*
X113133333Y-125767200D01*
X113133333Y-125767200D02*
X113228571Y-125814819D01*
X113228571Y-125814819D02*
X113419047Y-125814819D01*
X113419047Y-125814819D02*
X113514285Y-125767200D01*
X113514285Y-125767200D02*
X113561904Y-125719580D01*
X113561904Y-125719580D02*
X113609523Y-125624342D01*
X113609523Y-125624342D02*
X113609523Y-124814819D01*
X114038095Y-124910057D02*
X114085714Y-124862438D01*
X114085714Y-124862438D02*
X114180952Y-124814819D01*
X114180952Y-124814819D02*
X114419047Y-124814819D01*
X114419047Y-124814819D02*
X114514285Y-124862438D01*
X114514285Y-124862438D02*
X114561904Y-124910057D01*
X114561904Y-124910057D02*
X114609523Y-125005295D01*
X114609523Y-125005295D02*
X114609523Y-125100533D01*
X114609523Y-125100533D02*
X114561904Y-125243390D01*
X114561904Y-125243390D02*
X113990476Y-125814819D01*
X113990476Y-125814819D02*
X114609523Y-125814819D01*
X107954819Y-71461904D02*
X108764342Y-71461904D01*
X108764342Y-71461904D02*
X108859580Y-71414285D01*
X108859580Y-71414285D02*
X108907200Y-71366666D01*
X108907200Y-71366666D02*
X108954819Y-71271428D01*
X108954819Y-71271428D02*
X108954819Y-71080952D01*
X108954819Y-71080952D02*
X108907200Y-70985714D01*
X108907200Y-70985714D02*
X108859580Y-70938095D01*
X108859580Y-70938095D02*
X108764342Y-70890476D01*
X108764342Y-70890476D02*
X107954819Y-70890476D01*
X108288152Y-69985714D02*
X108954819Y-69985714D01*
X107907200Y-70223809D02*
X108621485Y-70461904D01*
X108621485Y-70461904D02*
X108621485Y-69842857D01*
D11*
X100417419Y-82508094D02*
X99417419Y-82508094D01*
X100417419Y-81936666D02*
X99845990Y-82365237D01*
X99417419Y-81936666D02*
X99988847Y-82508094D01*
X99750752Y-81079523D02*
X100417419Y-81079523D01*
X99369800Y-81317618D02*
X100084085Y-81555713D01*
X100084085Y-81555713D02*
X100084085Y-80936666D01*
D10*
X89236666Y-125524819D02*
X89236666Y-126239104D01*
X89236666Y-126239104D02*
X89189047Y-126381961D01*
X89189047Y-126381961D02*
X89093809Y-126477200D01*
X89093809Y-126477200D02*
X88950952Y-126524819D01*
X88950952Y-126524819D02*
X88855714Y-126524819D01*
X90236666Y-126524819D02*
X89665238Y-126524819D01*
X89950952Y-126524819D02*
X89950952Y-125524819D01*
X89950952Y-125524819D02*
X89855714Y-125667676D01*
X89855714Y-125667676D02*
X89760476Y-125762914D01*
X89760476Y-125762914D02*
X89665238Y-125810533D01*
X116398095Y-125154819D02*
X116398095Y-125964342D01*
X116398095Y-125964342D02*
X116445714Y-126059580D01*
X116445714Y-126059580D02*
X116493333Y-126107200D01*
X116493333Y-126107200D02*
X116588571Y-126154819D01*
X116588571Y-126154819D02*
X116779047Y-126154819D01*
X116779047Y-126154819D02*
X116874285Y-126107200D01*
X116874285Y-126107200D02*
X116921904Y-126059580D01*
X116921904Y-126059580D02*
X116969523Y-125964342D01*
X116969523Y-125964342D02*
X116969523Y-125154819D01*
X117350476Y-125154819D02*
X117969523Y-125154819D01*
X117969523Y-125154819D02*
X117636190Y-125535771D01*
X117636190Y-125535771D02*
X117779047Y-125535771D01*
X117779047Y-125535771D02*
X117874285Y-125583390D01*
X117874285Y-125583390D02*
X117921904Y-125631009D01*
X117921904Y-125631009D02*
X117969523Y-125726247D01*
X117969523Y-125726247D02*
X117969523Y-125964342D01*
X117969523Y-125964342D02*
X117921904Y-126059580D01*
X117921904Y-126059580D02*
X117874285Y-126107200D01*
X117874285Y-126107200D02*
X117779047Y-126154819D01*
X117779047Y-126154819D02*
X117493333Y-126154819D01*
X117493333Y-126154819D02*
X117398095Y-126107200D01*
X117398095Y-126107200D02*
X117350476Y-126059580D01*
X83618595Y-98985819D02*
X83618595Y-99795342D01*
X83618595Y-99795342D02*
X83666214Y-99890580D01*
X83666214Y-99890580D02*
X83713833Y-99938200D01*
X83713833Y-99938200D02*
X83809071Y-99985819D01*
X83809071Y-99985819D02*
X83999547Y-99985819D01*
X83999547Y-99985819D02*
X84094785Y-99938200D01*
X84094785Y-99938200D02*
X84142404Y-99890580D01*
X84142404Y-99890580D02*
X84190023Y-99795342D01*
X84190023Y-99795342D02*
X84190023Y-98985819D01*
X85142404Y-98985819D02*
X84666214Y-98985819D01*
X84666214Y-98985819D02*
X84618595Y-99462009D01*
X84618595Y-99462009D02*
X84666214Y-99414390D01*
X84666214Y-99414390D02*
X84761452Y-99366771D01*
X84761452Y-99366771D02*
X84999547Y-99366771D01*
X84999547Y-99366771D02*
X85094785Y-99414390D01*
X85094785Y-99414390D02*
X85142404Y-99462009D01*
X85142404Y-99462009D02*
X85190023Y-99557247D01*
X85190023Y-99557247D02*
X85190023Y-99795342D01*
X85190023Y-99795342D02*
X85142404Y-99890580D01*
X85142404Y-99890580D02*
X85094785Y-99938200D01*
X85094785Y-99938200D02*
X84999547Y-99985819D01*
X84999547Y-99985819D02*
X84761452Y-99985819D01*
X84761452Y-99985819D02*
X84666214Y-99938200D01*
X84666214Y-99938200D02*
X84618595Y-99890580D01*
D11*
X95142580Y-82700000D02*
X96142580Y-82700000D01*
X95142580Y-83271428D02*
X95714009Y-82842857D01*
X96142580Y-83271428D02*
X95571152Y-82700000D01*
X96142580Y-83604762D02*
X96142580Y-84223809D01*
X96142580Y-84223809D02*
X95761628Y-83890476D01*
X95761628Y-83890476D02*
X95761628Y-84033333D01*
X95761628Y-84033333D02*
X95714009Y-84128571D01*
X95714009Y-84128571D02*
X95666390Y-84176190D01*
X95666390Y-84176190D02*
X95571152Y-84223809D01*
X95571152Y-84223809D02*
X95333057Y-84223809D01*
X95333057Y-84223809D02*
X95237819Y-84176190D01*
X95237819Y-84176190D02*
X95190200Y-84128571D01*
X95190200Y-84128571D02*
X95142580Y-84033333D01*
X95142580Y-84033333D02*
X95142580Y-83747619D01*
X95142580Y-83747619D02*
X95190200Y-83652381D01*
X95190200Y-83652381D02*
X95237819Y-83604762D01*
X95523533Y-84652381D02*
X95523533Y-85414286D01*
X95809247Y-85890476D02*
X94809247Y-85890476D01*
X95761628Y-85890476D02*
X95809247Y-85985714D01*
X95809247Y-85985714D02*
X95809247Y-86176190D01*
X95809247Y-86176190D02*
X95761628Y-86271428D01*
X95761628Y-86271428D02*
X95714009Y-86319047D01*
X95714009Y-86319047D02*
X95618771Y-86366666D01*
X95618771Y-86366666D02*
X95333057Y-86366666D01*
X95333057Y-86366666D02*
X95237819Y-86319047D01*
X95237819Y-86319047D02*
X95190200Y-86271428D01*
X95190200Y-86271428D02*
X95142580Y-86176190D01*
X95142580Y-86176190D02*
X95142580Y-85985714D01*
X95142580Y-85985714D02*
X95190200Y-85890476D01*
X95142580Y-86938095D02*
X95190200Y-86842857D01*
X95190200Y-86842857D02*
X95237819Y-86795238D01*
X95237819Y-86795238D02*
X95333057Y-86747619D01*
X95333057Y-86747619D02*
X95618771Y-86747619D01*
X95618771Y-86747619D02*
X95714009Y-86795238D01*
X95714009Y-86795238D02*
X95761628Y-86842857D01*
X95761628Y-86842857D02*
X95809247Y-86938095D01*
X95809247Y-86938095D02*
X95809247Y-87080952D01*
X95809247Y-87080952D02*
X95761628Y-87176190D01*
X95761628Y-87176190D02*
X95714009Y-87223809D01*
X95714009Y-87223809D02*
X95618771Y-87271428D01*
X95618771Y-87271428D02*
X95333057Y-87271428D01*
X95333057Y-87271428D02*
X95237819Y-87223809D01*
X95237819Y-87223809D02*
X95190200Y-87176190D01*
X95190200Y-87176190D02*
X95142580Y-87080952D01*
X95142580Y-87080952D02*
X95142580Y-86938095D01*
X95190200Y-87652381D02*
X95142580Y-87747619D01*
X95142580Y-87747619D02*
X95142580Y-87938095D01*
X95142580Y-87938095D02*
X95190200Y-88033333D01*
X95190200Y-88033333D02*
X95285438Y-88080952D01*
X95285438Y-88080952D02*
X95333057Y-88080952D01*
X95333057Y-88080952D02*
X95428295Y-88033333D01*
X95428295Y-88033333D02*
X95475914Y-87938095D01*
X95475914Y-87938095D02*
X95475914Y-87795238D01*
X95475914Y-87795238D02*
X95523533Y-87700000D01*
X95523533Y-87700000D02*
X95618771Y-87652381D01*
X95618771Y-87652381D02*
X95666390Y-87652381D01*
X95666390Y-87652381D02*
X95761628Y-87700000D01*
X95761628Y-87700000D02*
X95809247Y-87795238D01*
X95809247Y-87795238D02*
X95809247Y-87938095D01*
X95809247Y-87938095D02*
X95761628Y-88033333D01*
X95190200Y-88461905D02*
X95142580Y-88557143D01*
X95142580Y-88557143D02*
X95142580Y-88747619D01*
X95142580Y-88747619D02*
X95190200Y-88842857D01*
X95190200Y-88842857D02*
X95285438Y-88890476D01*
X95285438Y-88890476D02*
X95333057Y-88890476D01*
X95333057Y-88890476D02*
X95428295Y-88842857D01*
X95428295Y-88842857D02*
X95475914Y-88747619D01*
X95475914Y-88747619D02*
X95475914Y-88604762D01*
X95475914Y-88604762D02*
X95523533Y-88509524D01*
X95523533Y-88509524D02*
X95618771Y-88461905D01*
X95618771Y-88461905D02*
X95666390Y-88461905D01*
X95666390Y-88461905D02*
X95761628Y-88509524D01*
X95761628Y-88509524D02*
X95809247Y-88604762D01*
X95809247Y-88604762D02*
X95809247Y-88747619D01*
X95809247Y-88747619D02*
X95761628Y-88842857D01*
X95142580Y-89319048D02*
X95809247Y-89319048D01*
X96142580Y-89319048D02*
X96094961Y-89271429D01*
X96094961Y-89271429D02*
X96047342Y-89319048D01*
X96047342Y-89319048D02*
X96094961Y-89366667D01*
X96094961Y-89366667D02*
X96142580Y-89319048D01*
X96142580Y-89319048D02*
X96047342Y-89319048D01*
X95142580Y-89795238D02*
X96142580Y-89795238D01*
X95761628Y-89795238D02*
X95809247Y-89890476D01*
X95809247Y-89890476D02*
X95809247Y-90080952D01*
X95809247Y-90080952D02*
X95761628Y-90176190D01*
X95761628Y-90176190D02*
X95714009Y-90223809D01*
X95714009Y-90223809D02*
X95618771Y-90271428D01*
X95618771Y-90271428D02*
X95333057Y-90271428D01*
X95333057Y-90271428D02*
X95237819Y-90223809D01*
X95237819Y-90223809D02*
X95190200Y-90176190D01*
X95190200Y-90176190D02*
X95142580Y-90080952D01*
X95142580Y-90080952D02*
X95142580Y-89890476D01*
X95142580Y-89890476D02*
X95190200Y-89795238D01*
X95142580Y-90842857D02*
X95190200Y-90747619D01*
X95190200Y-90747619D02*
X95285438Y-90700000D01*
X95285438Y-90700000D02*
X96142580Y-90700000D01*
X95190200Y-91604762D02*
X95142580Y-91509524D01*
X95142580Y-91509524D02*
X95142580Y-91319048D01*
X95142580Y-91319048D02*
X95190200Y-91223810D01*
X95190200Y-91223810D02*
X95285438Y-91176191D01*
X95285438Y-91176191D02*
X95666390Y-91176191D01*
X95666390Y-91176191D02*
X95761628Y-91223810D01*
X95761628Y-91223810D02*
X95809247Y-91319048D01*
X95809247Y-91319048D02*
X95809247Y-91509524D01*
X95809247Y-91509524D02*
X95761628Y-91604762D01*
X95761628Y-91604762D02*
X95666390Y-91652381D01*
X95666390Y-91652381D02*
X95571152Y-91652381D01*
X95571152Y-91652381D02*
X95475914Y-91176191D01*
X95523533Y-92080953D02*
X95523533Y-92842858D01*
X95142580Y-93747619D02*
X96142580Y-93747619D01*
X95190200Y-93747619D02*
X95142580Y-93652381D01*
X95142580Y-93652381D02*
X95142580Y-93461905D01*
X95142580Y-93461905D02*
X95190200Y-93366667D01*
X95190200Y-93366667D02*
X95237819Y-93319048D01*
X95237819Y-93319048D02*
X95333057Y-93271429D01*
X95333057Y-93271429D02*
X95618771Y-93271429D01*
X95618771Y-93271429D02*
X95714009Y-93319048D01*
X95714009Y-93319048D02*
X95761628Y-93366667D01*
X95761628Y-93366667D02*
X95809247Y-93461905D01*
X95809247Y-93461905D02*
X95809247Y-93652381D01*
X95809247Y-93652381D02*
X95761628Y-93747619D01*
X95142580Y-94747619D02*
X95142580Y-94176191D01*
X95142580Y-94461905D02*
X96142580Y-94461905D01*
X96142580Y-94461905D02*
X95999723Y-94366667D01*
X95999723Y-94366667D02*
X95904485Y-94271429D01*
X95904485Y-94271429D02*
X95856866Y-94176191D01*
X117457419Y-94238094D02*
X116457419Y-94238094D01*
X117457419Y-93666666D02*
X116885990Y-94095237D01*
X116457419Y-93666666D02*
X117028847Y-94238094D01*
X116552657Y-93285713D02*
X116505038Y-93238094D01*
X116505038Y-93238094D02*
X116457419Y-93142856D01*
X116457419Y-93142856D02*
X116457419Y-92904761D01*
X116457419Y-92904761D02*
X116505038Y-92809523D01*
X116505038Y-92809523D02*
X116552657Y-92761904D01*
X116552657Y-92761904D02*
X116647895Y-92714285D01*
X116647895Y-92714285D02*
X116743133Y-92714285D01*
X116743133Y-92714285D02*
X116885990Y-92761904D01*
X116885990Y-92761904D02*
X117457419Y-93333332D01*
X117457419Y-93333332D02*
X117457419Y-92714285D01*
D10*
X117754819Y-109466666D02*
X117278628Y-109799999D01*
X117754819Y-110038094D02*
X116754819Y-110038094D01*
X116754819Y-110038094D02*
X116754819Y-109657142D01*
X116754819Y-109657142D02*
X116802438Y-109561904D01*
X116802438Y-109561904D02*
X116850057Y-109514285D01*
X116850057Y-109514285D02*
X116945295Y-109466666D01*
X116945295Y-109466666D02*
X117088152Y-109466666D01*
X117088152Y-109466666D02*
X117183390Y-109514285D01*
X117183390Y-109514285D02*
X117231009Y-109561904D01*
X117231009Y-109561904D02*
X117278628Y-109657142D01*
X117278628Y-109657142D02*
X117278628Y-110038094D01*
X116754819Y-109133332D02*
X116754819Y-108514285D01*
X116754819Y-108514285D02*
X117135771Y-108847618D01*
X117135771Y-108847618D02*
X117135771Y-108704761D01*
X117135771Y-108704761D02*
X117183390Y-108609523D01*
X117183390Y-108609523D02*
X117231009Y-108561904D01*
X117231009Y-108561904D02*
X117326247Y-108514285D01*
X117326247Y-108514285D02*
X117564342Y-108514285D01*
X117564342Y-108514285D02*
X117659580Y-108561904D01*
X117659580Y-108561904D02*
X117707200Y-108609523D01*
X117707200Y-108609523D02*
X117754819Y-108704761D01*
X117754819Y-108704761D02*
X117754819Y-108990475D01*
X117754819Y-108990475D02*
X117707200Y-109085713D01*
X117707200Y-109085713D02*
X117659580Y-109133332D01*
D12*
%TO.C,max1*%
X96970000Y-103630000D02*
X96970000Y-102300000D01*
X98300000Y-103630000D02*
X96970000Y-103630000D01*
X99570000Y-100970000D02*
X109790000Y-100970000D01*
X99570000Y-103630000D02*
X99570000Y-100970000D01*
X99570000Y-103630000D02*
X109790000Y-103630000D01*
X109790000Y-103630000D02*
X109790000Y-100970000D01*
%TO.C,U7*%
X87470000Y-131550000D02*
X91070000Y-131550000D01*
X87431522Y-131538478D02*
G75*
G02*
X89270000Y-127099999I1838478J1838478D01*
G01*
X89270000Y-127100000D02*
G75*
G02*
X91108478Y-131538478I0J-2600000D01*
G01*
%TO.C,display/ads1*%
X80510000Y-119950000D02*
X80510000Y-112270000D01*
X83170000Y-112270000D02*
X80510000Y-112270000D01*
X83170000Y-119950000D02*
X80510000Y-119950000D01*
X83170000Y-119950000D02*
X83170000Y-112270000D01*
X83170000Y-121220000D02*
X83170000Y-122550000D01*
X83170000Y-122550000D02*
X81840000Y-122550000D01*
%TO.C,K1*%
D11*
X77740000Y-98300000D02*
X87940000Y-98300000D01*
X87940000Y-79900000D01*
X77740000Y-79900000D01*
X77740000Y-98300000D01*
%TO.C,dc-in1*%
X114700000Y-117700000D02*
X128000000Y-117700000D01*
X128700000Y-122000000D02*
X114700000Y-122000000D01*
X114700000Y-113000000D01*
X128700000Y-113000000D01*
X128700000Y-122000000D01*
D12*
%TO.C,RV1*%
X111525000Y-102404000D02*
X111525000Y-100440000D01*
X111525000Y-105180000D02*
X111525000Y-103394000D01*
X118475000Y-100440000D02*
X111525000Y-100440000D01*
X118475000Y-102404000D02*
X118475000Y-100440000D01*
X118475000Y-105180000D02*
X111525000Y-105180000D01*
X118475000Y-105180000D02*
X118475000Y-103394000D01*
%TO.C,D1*%
X126730000Y-129945000D02*
X126730000Y-126855000D01*
X121180000Y-128400462D02*
G75*
G02*
X126730000Y-126855170I2990000J462D01*
G01*
X126730000Y-129944830D02*
G75*
G02*
X121180000Y-128399538I-2560000J1544830D01*
G01*
X126670000Y-128400000D02*
G75*
G02*
X121670000Y-128400000I-2500000J0D01*
G01*
X121670000Y-128400000D02*
G75*
G02*
X126670000Y-128400000I2500000J0D01*
G01*
%TO.C,U2*%
X93320000Y-107580000D02*
X95440000Y-107580000D01*
X93320000Y-108200000D02*
X93320000Y-107580000D01*
X93320000Y-131820000D02*
X93320000Y-124200000D01*
X107440000Y-107580000D02*
X109560000Y-107580000D01*
X109560000Y-107580000D02*
X109560000Y-108200000D01*
X109560000Y-124200000D02*
X109560000Y-131820000D01*
X109560000Y-131820000D02*
X93320000Y-131820000D01*
X110230000Y-124536000D02*
X109750000Y-124536000D01*
X109990000Y-124200000D01*
X110230000Y-124536000D01*
G36*
X110230000Y-124536000D02*
G01*
X109750000Y-124536000D01*
X109990000Y-124200000D01*
X110230000Y-124536000D01*
G37*
%TO.C,J3*%
D11*
X78200000Y-52700000D02*
X125200000Y-52700000D01*
X125200000Y-61700000D01*
X78200000Y-61700000D01*
X78200000Y-52700000D01*
D10*
%TO.C,U4*%
X104540000Y-79770000D02*
X104540000Y-62270000D01*
X104540000Y-79770000D02*
X115610000Y-79770000D01*
X115610000Y-62270000D02*
X104540000Y-62270000D01*
X115610000Y-62270000D02*
X115610000Y-79770000D01*
%TO.C,K4*%
D11*
X98620000Y-98300000D02*
X108820000Y-98300000D01*
X108820000Y-79900000D01*
X98620000Y-79900000D01*
X98620000Y-98300000D01*
D12*
%TO.C,J1*%
X88240000Y-122470000D02*
X88240000Y-112250000D01*
X90900000Y-112250000D02*
X88240000Y-112250000D01*
X90900000Y-122470000D02*
X88240000Y-122470000D01*
X90900000Y-122470000D02*
X90900000Y-112250000D01*
X90900000Y-123740000D02*
X90900000Y-125070000D01*
X90900000Y-125070000D02*
X89570000Y-125070000D01*
%TO.C,U3*%
X119800000Y-126590000D02*
X117200000Y-126590000D01*
X119800000Y-126940000D02*
X119800000Y-126590000D01*
X119800000Y-129260000D02*
X119800000Y-129600000D01*
X119800000Y-129600000D02*
X114710000Y-129600000D01*
X119300000Y-129600000D02*
G75*
G02*
X115100083Y-129601736I-2100000J100000D01*
G01*
%TO.C,U5*%
X75935000Y-102500000D02*
X77935000Y-102500000D01*
X75935000Y-102800000D02*
X75935000Y-102500000D01*
X75935000Y-102800000D02*
X75935000Y-107500000D01*
X75935000Y-107500000D02*
X77935000Y-107500000D01*
X77935000Y-101700000D02*
X90935000Y-101700000D01*
X77935000Y-102500000D02*
X77935000Y-101700000D01*
X77935000Y-107500000D02*
X77935000Y-108300000D01*
X77935000Y-108300000D02*
X90935000Y-108300000D01*
X90935000Y-101700000D02*
X90935000Y-108300000D01*
%TO.C,K3-possible-d1*%
D11*
X88140000Y-98300000D02*
X98340000Y-98300000D01*
X98340000Y-79900000D01*
X88140000Y-79900000D01*
X88140000Y-98300000D01*
%TO.C,J2*%
X128700000Y-64400000D02*
X119700000Y-64400000D01*
X119700000Y-111400000D01*
X128700000Y-111400000D01*
X128700000Y-64400000D01*
%TO.C,K2*%
X108940000Y-98300000D02*
X119140000Y-98300000D01*
X119140000Y-79900000D01*
X108940000Y-79900000D01*
X108940000Y-98300000D01*
D12*
%TO.C,R3*%
X114465000Y-107160436D02*
X114465000Y-107614564D01*
X115935000Y-107160436D02*
X115935000Y-107614564D01*
D10*
%TO.C,MX-RM-5V-RF-sensor1*%
X77950029Y-78090707D02*
X77950029Y-76540707D01*
X78230029Y-75270707D02*
X78230029Y-67650707D01*
X78230029Y-75270707D02*
X80770029Y-75270707D01*
X80770029Y-67650707D02*
X78230029Y-67650707D01*
X80770029Y-75270707D02*
X80770029Y-67650707D01*
X81050029Y-76540707D02*
X81050029Y-78090707D01*
X81050029Y-78090707D02*
X77950029Y-78090707D01*
%TD*%
D13*
%TO.C,MX-RM-5V-RF-sensor1*%
X79500029Y-76540707D03*
D14*
X79500029Y-74000707D03*
X79500029Y-71460707D03*
X79500029Y-68920707D03*
%TD*%
M02*
