%TF.GenerationSoftware,KiCad,Pcbnew,8.0.5*%
%TF.CreationDate,2024-10-28T11:16:19+03:00*%
%TF.ProjectId,IoTmanager,496f546d-616e-4616-9765-722e6b696361,rev?*%
%TF.SameCoordinates,Original*%
%TF.FileFunction,Soldermask,Top*%
%TF.FilePolarity,Negative*%
%FSLAX46Y46*%
G04 Gerber Fmt 4.6, Leading zero omitted, Abs format (unit mm)*
G04 Created by KiCad (PCBNEW 8.0.5) date 2024-10-28 11:16:19*
%MOMM*%
%LPD*%
G01*
G04 APERTURE LIST*
G04 Aperture macros list*
%AMRoundRect*
0 Rectangle with rounded corners*
0 $1 Rounding radius*
0 $2 $3 $4 $5 $6 $7 $8 $9 X,Y pos of 4 corners*
0 Add a 4 corners polygon primitive as box body*
4,1,4,$2,$3,$4,$5,$6,$7,$8,$9,$2,$3,0*
0 Add four circle primitives for the rounded corners*
1,1,$1+$1,$2,$3*
1,1,$1+$1,$4,$5*
1,1,$1+$1,$6,$7*
1,1,$1+$1,$8,$9*
0 Add four rect primitives between the rounded corners*
20,1,$1+$1,$2,$3,$4,$5,0*
20,1,$1+$1,$4,$5,$6,$7,0*
20,1,$1+$1,$6,$7,$8,$9,0*
20,1,$1+$1,$8,$9,$2,$3,0*%
G04 Aperture macros list end*
%ADD10R,1.700000X1.700000*%
%ADD11O,1.700000X1.700000*%
%ADD12R,1.050000X1.500000*%
%ADD13O,1.050000X1.500000*%
%ADD14C,1.500000*%
%ADD15R,2.000000X4.000000*%
%ADD16R,4.000000X2.000000*%
%ADD17C,1.440000*%
%ADD18R,1.800000X1.800000*%
%ADD19C,1.800000*%
%ADD20R,2.500000X1.000000*%
%ADD21R,1.000000X1.800000*%
%ADD22R,2.000000X2.000000*%
%ADD23O,2.000000X2.500000*%
%ADD24RoundRect,0.250200X-0.649800X-0.649800X0.649800X-0.649800X0.649800X0.649800X-0.649800X0.649800X0*%
%ADD25C,2.000000*%
%ADD26RoundRect,0.250000X-0.450000X0.262500X-0.450000X-0.262500X0.450000X-0.262500X0.450000X0.262500X0*%
%ADD27R,2.032000X1.727200*%
%ADD28O,2.032000X1.727200*%
%ADD29C,0.600000*%
G04 APERTURE END LIST*
D10*
%TO.C,max1*%
X98300000Y-102300000D03*
D11*
X100840000Y-102300000D03*
X103380000Y-102300000D03*
X105920000Y-102300000D03*
X108460000Y-102300000D03*
%TD*%
D12*
%TO.C,U7*%
X88000000Y-129700000D03*
D13*
X89270000Y-129700000D03*
X90540000Y-129700000D03*
%TD*%
D10*
%TO.C,display/ads1*%
X81840000Y-121220000D03*
D11*
X81840000Y-118680000D03*
X81840000Y-116140000D03*
X81840000Y-113600000D03*
%TD*%
D14*
%TO.C,K1*%
X86540000Y-81260000D03*
X86540000Y-85300000D03*
X78940000Y-83800000D03*
X86540000Y-96400000D03*
X78940000Y-96500000D03*
%TD*%
D15*
%TO.C,dc-in1*%
X114700000Y-117700000D03*
D16*
X117700000Y-113000000D03*
D15*
X120900000Y-117700000D03*
%TD*%
D17*
%TO.C,RV1*%
X112460000Y-102900000D03*
X115000000Y-102900000D03*
X117540000Y-102900000D03*
%TD*%
D18*
%TO.C,D1*%
X125440000Y-128400000D03*
D19*
X122900000Y-128400000D03*
%TD*%
D20*
%TO.C,U2*%
X109040000Y-123200000D03*
X109040000Y-121200000D03*
X109040000Y-119200000D03*
X109040000Y-117200000D03*
X109040000Y-115200000D03*
X109040000Y-113200000D03*
X109040000Y-111200000D03*
X109040000Y-109200000D03*
D21*
X106440000Y-107700000D03*
X104440000Y-107700000D03*
X102440000Y-107700000D03*
X100440000Y-107700000D03*
X98440000Y-107700000D03*
X96440000Y-107700000D03*
D20*
X93840000Y-109200000D03*
X93840000Y-111200000D03*
X93840000Y-113200000D03*
X93840000Y-115200000D03*
X93840000Y-117200000D03*
X93840000Y-119200000D03*
X93840000Y-121200000D03*
X93840000Y-123200000D03*
%TD*%
D22*
%TO.C,J3*%
X122600000Y-60700000D03*
X118790000Y-60700000D03*
X114980000Y-60700000D03*
X111170000Y-60700000D03*
X107360000Y-60700000D03*
X103550000Y-60700000D03*
X99740000Y-60700000D03*
X95930000Y-60700000D03*
X92120000Y-60700000D03*
X88310000Y-60700000D03*
X84500000Y-60700000D03*
X80690000Y-60700000D03*
%TD*%
D23*
%TO.C,U4*%
X114640000Y-63400000D03*
X105500000Y-63400000D03*
X114640000Y-78640000D03*
X105500000Y-78640000D03*
%TD*%
D14*
%TO.C,K4*%
X99820000Y-96500000D03*
X107420000Y-96400000D03*
X99820000Y-83800000D03*
X107420000Y-85300000D03*
X107420000Y-81260000D03*
%TD*%
D10*
%TO.C,J1*%
X89570000Y-123740000D03*
D11*
X89570000Y-121200000D03*
X89570000Y-118660000D03*
X89570000Y-116120000D03*
X89570000Y-113580000D03*
%TD*%
D24*
%TO.C,U3*%
X114660000Y-128100000D03*
D19*
X117200000Y-128100000D03*
X119740000Y-128100000D03*
%TD*%
D25*
%TO.C,U5*%
X89085000Y-107200000D03*
X88085000Y-102800000D03*
X84085000Y-102800000D03*
X81085000Y-102800000D03*
%TD*%
D14*
%TO.C,K3-possible-d1*%
X89340000Y-96500000D03*
X96940000Y-96400000D03*
X89340000Y-83800000D03*
X96940000Y-85300000D03*
X96940000Y-81260000D03*
%TD*%
D22*
%TO.C,J2*%
X120700000Y-108800000D03*
X120700000Y-104990000D03*
X120700000Y-101180000D03*
X120700000Y-97370000D03*
X120700000Y-93560000D03*
X120700000Y-89750000D03*
X120700000Y-85940000D03*
X120700000Y-82130000D03*
X120700000Y-78320000D03*
X120700000Y-74510000D03*
X120700000Y-70700000D03*
X120700000Y-66890000D03*
%TD*%
D14*
%TO.C,K2*%
X117740000Y-81260000D03*
X117740000Y-85300000D03*
X110140000Y-83800000D03*
X117740000Y-96400000D03*
X110140000Y-96500000D03*
%TD*%
D26*
%TO.C,R3*%
X115200000Y-106475000D03*
X115200000Y-108300000D03*
%TD*%
D27*
%TO.C,MX-RM-5V-RF-sensor1*%
X79500029Y-76540707D03*
D28*
X79500029Y-74000707D03*
X79500029Y-71460707D03*
X79500029Y-68920707D03*
%TD*%
D29*
X90952800Y-93901700D03*
X108320600Y-103755900D03*
X99040600Y-114125100D03*
X102709000Y-110661500D03*
X108099100Y-108200000D03*
X85542400Y-94343300D03*
X113531600Y-96094300D03*
X103136200Y-81999400D03*
X103122800Y-86389700D03*
X90392100Y-111391700D03*
X102881100Y-82908800D03*
X105700500Y-122586800D03*
X107290000Y-119136200D03*
M02*
