%TF.GenerationSoftware,KiCad,Pcbnew,8.0.5*%
%TF.CreationDate,2024-10-28T11:16:19+03:00*%
%TF.ProjectId,IoTmanager,496f546d-616e-4616-9765-722e6b696361,rev?*%
%TF.SameCoordinates,Original*%
%TF.FileFunction,Legend,Bot*%
%TF.FilePolarity,Positive*%
%FSLAX46Y46*%
G04 Gerber Fmt 4.6, Leading zero omitted, Abs format (unit mm)*
G04 Created by KiCad (PCBNEW 8.0.5) date 2024-10-28 11:16:19*
%MOMM*%
%LPD*%
G01*
G04 APERTURE LIST*
%ADD10C,0.150000*%
%ADD11C,0.120000*%
G04 APERTURE END LIST*
D10*
X94649819Y-98768095D02*
X93983152Y-98768095D01*
X94078390Y-98768095D02*
X94030771Y-98815714D01*
X94030771Y-98815714D02*
X93983152Y-98910952D01*
X93983152Y-98910952D02*
X93983152Y-99053809D01*
X93983152Y-99053809D02*
X94030771Y-99149047D01*
X94030771Y-99149047D02*
X94126009Y-99196666D01*
X94126009Y-99196666D02*
X94649819Y-99196666D01*
X94126009Y-99196666D02*
X94030771Y-99244285D01*
X94030771Y-99244285D02*
X93983152Y-99339523D01*
X93983152Y-99339523D02*
X93983152Y-99482380D01*
X93983152Y-99482380D02*
X94030771Y-99577619D01*
X94030771Y-99577619D02*
X94126009Y-99625238D01*
X94126009Y-99625238D02*
X94649819Y-99625238D01*
X94649819Y-100529999D02*
X94126009Y-100529999D01*
X94126009Y-100529999D02*
X94030771Y-100482380D01*
X94030771Y-100482380D02*
X93983152Y-100387142D01*
X93983152Y-100387142D02*
X93983152Y-100196666D01*
X93983152Y-100196666D02*
X94030771Y-100101428D01*
X94602200Y-100529999D02*
X94649819Y-100434761D01*
X94649819Y-100434761D02*
X94649819Y-100196666D01*
X94649819Y-100196666D02*
X94602200Y-100101428D01*
X94602200Y-100101428D02*
X94506961Y-100053809D01*
X94506961Y-100053809D02*
X94411723Y-100053809D01*
X94411723Y-100053809D02*
X94316485Y-100101428D01*
X94316485Y-100101428D02*
X94268866Y-100196666D01*
X94268866Y-100196666D02*
X94268866Y-100434761D01*
X94268866Y-100434761D02*
X94221247Y-100529999D01*
X94649819Y-100910952D02*
X93983152Y-101434761D01*
X93983152Y-100910952D02*
X94649819Y-101434761D01*
X94649819Y-102339523D02*
X94649819Y-101768095D01*
X94649819Y-102053809D02*
X93649819Y-102053809D01*
X93649819Y-102053809D02*
X93792676Y-101958571D01*
X93792676Y-101958571D02*
X93887914Y-101863333D01*
X93887914Y-101863333D02*
X93935533Y-101768095D01*
X80054819Y-87057142D02*
X79578628Y-86723809D01*
X80054819Y-86485714D02*
X79054819Y-86485714D01*
X79054819Y-86485714D02*
X79054819Y-86866666D01*
X79054819Y-86866666D02*
X79102438Y-86961904D01*
X79102438Y-86961904D02*
X79150057Y-87009523D01*
X79150057Y-87009523D02*
X79245295Y-87057142D01*
X79245295Y-87057142D02*
X79388152Y-87057142D01*
X79388152Y-87057142D02*
X79483390Y-87009523D01*
X79483390Y-87009523D02*
X79531009Y-86961904D01*
X79531009Y-86961904D02*
X79578628Y-86866666D01*
X79578628Y-86866666D02*
X79578628Y-86485714D01*
X80054819Y-88009523D02*
X80054819Y-87438095D01*
X80054819Y-87723809D02*
X79054819Y-87723809D01*
X79054819Y-87723809D02*
X79197676Y-87628571D01*
X79197676Y-87628571D02*
X79292914Y-87533333D01*
X79292914Y-87533333D02*
X79340533Y-87438095D01*
X79388152Y-88866666D02*
X80054819Y-88866666D01*
X79007200Y-88628571D02*
X79721485Y-88390476D01*
X79721485Y-88390476D02*
X79721485Y-89009523D01*
X106499819Y-66494048D02*
X105499819Y-66494048D01*
X106499819Y-67541666D02*
X106023628Y-67208333D01*
X106499819Y-66970238D02*
X105499819Y-66970238D01*
X105499819Y-66970238D02*
X105499819Y-67351190D01*
X105499819Y-67351190D02*
X105547438Y-67446428D01*
X105547438Y-67446428D02*
X105595057Y-67494047D01*
X105595057Y-67494047D02*
X105690295Y-67541666D01*
X105690295Y-67541666D02*
X105833152Y-67541666D01*
X105833152Y-67541666D02*
X105928390Y-67494047D01*
X105928390Y-67494047D02*
X105976009Y-67446428D01*
X105976009Y-67446428D02*
X106023628Y-67351190D01*
X106023628Y-67351190D02*
X106023628Y-66970238D01*
X106499819Y-68446428D02*
X106499819Y-67970238D01*
X106499819Y-67970238D02*
X105499819Y-67970238D01*
X106499819Y-69351190D02*
X106023628Y-69017857D01*
X106499819Y-68779762D02*
X105499819Y-68779762D01*
X105499819Y-68779762D02*
X105499819Y-69160714D01*
X105499819Y-69160714D02*
X105547438Y-69255952D01*
X105547438Y-69255952D02*
X105595057Y-69303571D01*
X105595057Y-69303571D02*
X105690295Y-69351190D01*
X105690295Y-69351190D02*
X105833152Y-69351190D01*
X105833152Y-69351190D02*
X105928390Y-69303571D01*
X105928390Y-69303571D02*
X105976009Y-69255952D01*
X105976009Y-69255952D02*
X106023628Y-69160714D01*
X106023628Y-69160714D02*
X106023628Y-68779762D01*
X105595057Y-69732143D02*
X105547438Y-69779762D01*
X105547438Y-69779762D02*
X105499819Y-69875000D01*
X105499819Y-69875000D02*
X105499819Y-70113095D01*
X105499819Y-70113095D02*
X105547438Y-70208333D01*
X105547438Y-70208333D02*
X105595057Y-70255952D01*
X105595057Y-70255952D02*
X105690295Y-70303571D01*
X105690295Y-70303571D02*
X105785533Y-70303571D01*
X105785533Y-70303571D02*
X105928390Y-70255952D01*
X105928390Y-70255952D02*
X106499819Y-69684524D01*
X106499819Y-69684524D02*
X106499819Y-70303571D01*
X91119819Y-66354048D02*
X90119819Y-66354048D01*
X91119819Y-67401666D02*
X90643628Y-67068333D01*
X91119819Y-66830238D02*
X90119819Y-66830238D01*
X90119819Y-66830238D02*
X90119819Y-67211190D01*
X90119819Y-67211190D02*
X90167438Y-67306428D01*
X90167438Y-67306428D02*
X90215057Y-67354047D01*
X90215057Y-67354047D02*
X90310295Y-67401666D01*
X90310295Y-67401666D02*
X90453152Y-67401666D01*
X90453152Y-67401666D02*
X90548390Y-67354047D01*
X90548390Y-67354047D02*
X90596009Y-67306428D01*
X90596009Y-67306428D02*
X90643628Y-67211190D01*
X90643628Y-67211190D02*
X90643628Y-66830238D01*
X91119819Y-68306428D02*
X91119819Y-67830238D01*
X91119819Y-67830238D02*
X90119819Y-67830238D01*
X91119819Y-69211190D02*
X90643628Y-68877857D01*
X91119819Y-68639762D02*
X90119819Y-68639762D01*
X90119819Y-68639762D02*
X90119819Y-69020714D01*
X90119819Y-69020714D02*
X90167438Y-69115952D01*
X90167438Y-69115952D02*
X90215057Y-69163571D01*
X90215057Y-69163571D02*
X90310295Y-69211190D01*
X90310295Y-69211190D02*
X90453152Y-69211190D01*
X90453152Y-69211190D02*
X90548390Y-69163571D01*
X90548390Y-69163571D02*
X90596009Y-69115952D01*
X90596009Y-69115952D02*
X90643628Y-69020714D01*
X90643628Y-69020714D02*
X90643628Y-68639762D01*
X90119819Y-69544524D02*
X90119819Y-70163571D01*
X90119819Y-70163571D02*
X90500771Y-69830238D01*
X90500771Y-69830238D02*
X90500771Y-69973095D01*
X90500771Y-69973095D02*
X90548390Y-70068333D01*
X90548390Y-70068333D02*
X90596009Y-70115952D01*
X90596009Y-70115952D02*
X90691247Y-70163571D01*
X90691247Y-70163571D02*
X90929342Y-70163571D01*
X90929342Y-70163571D02*
X91024580Y-70115952D01*
X91024580Y-70115952D02*
X91072200Y-70068333D01*
X91072200Y-70068333D02*
X91119819Y-69973095D01*
X91119819Y-69973095D02*
X91119819Y-69687381D01*
X91119819Y-69687381D02*
X91072200Y-69592143D01*
X91072200Y-69592143D02*
X91024580Y-69544524D01*
X93104819Y-87944642D02*
X92628628Y-87611309D01*
X93104819Y-87373214D02*
X92104819Y-87373214D01*
X92104819Y-87373214D02*
X92104819Y-87754166D01*
X92104819Y-87754166D02*
X92152438Y-87849404D01*
X92152438Y-87849404D02*
X92200057Y-87897023D01*
X92200057Y-87897023D02*
X92295295Y-87944642D01*
X92295295Y-87944642D02*
X92438152Y-87944642D01*
X92438152Y-87944642D02*
X92533390Y-87897023D01*
X92533390Y-87897023D02*
X92581009Y-87849404D01*
X92581009Y-87849404D02*
X92628628Y-87754166D01*
X92628628Y-87754166D02*
X92628628Y-87373214D01*
X93104819Y-88897023D02*
X93104819Y-88325595D01*
X93104819Y-88611309D02*
X92104819Y-88611309D01*
X92104819Y-88611309D02*
X92247676Y-88516071D01*
X92247676Y-88516071D02*
X92342914Y-88420833D01*
X92342914Y-88420833D02*
X92390533Y-88325595D01*
X92104819Y-89230357D02*
X92104819Y-89897023D01*
X92104819Y-89897023D02*
X93104819Y-89468452D01*
X113904819Y-88269642D02*
X113428628Y-87936309D01*
X113904819Y-87698214D02*
X112904819Y-87698214D01*
X112904819Y-87698214D02*
X112904819Y-88079166D01*
X112904819Y-88079166D02*
X112952438Y-88174404D01*
X112952438Y-88174404D02*
X113000057Y-88222023D01*
X113000057Y-88222023D02*
X113095295Y-88269642D01*
X113095295Y-88269642D02*
X113238152Y-88269642D01*
X113238152Y-88269642D02*
X113333390Y-88222023D01*
X113333390Y-88222023D02*
X113381009Y-88174404D01*
X113381009Y-88174404D02*
X113428628Y-88079166D01*
X113428628Y-88079166D02*
X113428628Y-87698214D01*
X113904819Y-89222023D02*
X113904819Y-88650595D01*
X113904819Y-88936309D02*
X112904819Y-88936309D01*
X112904819Y-88936309D02*
X113047676Y-88841071D01*
X113047676Y-88841071D02*
X113142914Y-88745833D01*
X113142914Y-88745833D02*
X113190533Y-88650595D01*
X112904819Y-90126785D02*
X112904819Y-89650595D01*
X112904819Y-89650595D02*
X113381009Y-89602976D01*
X113381009Y-89602976D02*
X113333390Y-89650595D01*
X113333390Y-89650595D02*
X113285771Y-89745833D01*
X113285771Y-89745833D02*
X113285771Y-89983928D01*
X113285771Y-89983928D02*
X113333390Y-90079166D01*
X113333390Y-90079166D02*
X113381009Y-90126785D01*
X113381009Y-90126785D02*
X113476247Y-90174404D01*
X113476247Y-90174404D02*
X113714342Y-90174404D01*
X113714342Y-90174404D02*
X113809580Y-90126785D01*
X113809580Y-90126785D02*
X113857200Y-90079166D01*
X113857200Y-90079166D02*
X113904819Y-89983928D01*
X113904819Y-89983928D02*
X113904819Y-89745833D01*
X113904819Y-89745833D02*
X113857200Y-89650595D01*
X113857200Y-89650595D02*
X113809580Y-89602976D01*
X80057738Y-89800057D02*
X80152976Y-89752438D01*
X80152976Y-89752438D02*
X80248214Y-89657200D01*
X80248214Y-89657200D02*
X80391071Y-89514342D01*
X80391071Y-89514342D02*
X80486309Y-89466723D01*
X80486309Y-89466723D02*
X80581547Y-89466723D01*
X80533928Y-89704819D02*
X80629166Y-89657200D01*
X80629166Y-89657200D02*
X80724404Y-89561961D01*
X80724404Y-89561961D02*
X80772023Y-89371485D01*
X80772023Y-89371485D02*
X80772023Y-89038152D01*
X80772023Y-89038152D02*
X80724404Y-88847676D01*
X80724404Y-88847676D02*
X80629166Y-88752438D01*
X80629166Y-88752438D02*
X80533928Y-88704819D01*
X80533928Y-88704819D02*
X80343452Y-88704819D01*
X80343452Y-88704819D02*
X80248214Y-88752438D01*
X80248214Y-88752438D02*
X80152976Y-88847676D01*
X80152976Y-88847676D02*
X80105357Y-89038152D01*
X80105357Y-89038152D02*
X80105357Y-89371485D01*
X80105357Y-89371485D02*
X80152976Y-89561961D01*
X80152976Y-89561961D02*
X80248214Y-89657200D01*
X80248214Y-89657200D02*
X80343452Y-89704819D01*
X80343452Y-89704819D02*
X80533928Y-89704819D01*
X79248214Y-89038152D02*
X79248214Y-89704819D01*
X79486309Y-88657200D02*
X79724404Y-89371485D01*
X79724404Y-89371485D02*
X79105357Y-89371485D01*
X94606666Y-81354819D02*
X94939999Y-80878628D01*
X95178094Y-81354819D02*
X95178094Y-80354819D01*
X95178094Y-80354819D02*
X94797142Y-80354819D01*
X94797142Y-80354819D02*
X94701904Y-80402438D01*
X94701904Y-80402438D02*
X94654285Y-80450057D01*
X94654285Y-80450057D02*
X94606666Y-80545295D01*
X94606666Y-80545295D02*
X94606666Y-80688152D01*
X94606666Y-80688152D02*
X94654285Y-80783390D01*
X94654285Y-80783390D02*
X94701904Y-80831009D01*
X94701904Y-80831009D02*
X94797142Y-80878628D01*
X94797142Y-80878628D02*
X95178094Y-80878628D01*
X93701904Y-80354819D02*
X94178094Y-80354819D01*
X94178094Y-80354819D02*
X94225713Y-80831009D01*
X94225713Y-80831009D02*
X94178094Y-80783390D01*
X94178094Y-80783390D02*
X94082856Y-80735771D01*
X94082856Y-80735771D02*
X93844761Y-80735771D01*
X93844761Y-80735771D02*
X93749523Y-80783390D01*
X93749523Y-80783390D02*
X93701904Y-80831009D01*
X93701904Y-80831009D02*
X93654285Y-80926247D01*
X93654285Y-80926247D02*
X93654285Y-81164342D01*
X93654285Y-81164342D02*
X93701904Y-81259580D01*
X93701904Y-81259580D02*
X93749523Y-81307200D01*
X93749523Y-81307200D02*
X93844761Y-81354819D01*
X93844761Y-81354819D02*
X94082856Y-81354819D01*
X94082856Y-81354819D02*
X94178094Y-81307200D01*
X94178094Y-81307200D02*
X94225713Y-81259580D01*
X100564819Y-120124642D02*
X100088628Y-119791309D01*
X100564819Y-119553214D02*
X99564819Y-119553214D01*
X99564819Y-119553214D02*
X99564819Y-119934166D01*
X99564819Y-119934166D02*
X99612438Y-120029404D01*
X99612438Y-120029404D02*
X99660057Y-120077023D01*
X99660057Y-120077023D02*
X99755295Y-120124642D01*
X99755295Y-120124642D02*
X99898152Y-120124642D01*
X99898152Y-120124642D02*
X99993390Y-120077023D01*
X99993390Y-120077023D02*
X100041009Y-120029404D01*
X100041009Y-120029404D02*
X100088628Y-119934166D01*
X100088628Y-119934166D02*
X100088628Y-119553214D01*
X100564819Y-121077023D02*
X100564819Y-120505595D01*
X100564819Y-120791309D02*
X99564819Y-120791309D01*
X99564819Y-120791309D02*
X99707676Y-120696071D01*
X99707676Y-120696071D02*
X99802914Y-120600833D01*
X99802914Y-120600833D02*
X99850533Y-120505595D01*
X99564819Y-121696071D02*
X99564819Y-121791309D01*
X99564819Y-121791309D02*
X99612438Y-121886547D01*
X99612438Y-121886547D02*
X99660057Y-121934166D01*
X99660057Y-121934166D02*
X99755295Y-121981785D01*
X99755295Y-121981785D02*
X99945771Y-122029404D01*
X99945771Y-122029404D02*
X100183866Y-122029404D01*
X100183866Y-122029404D02*
X100374342Y-121981785D01*
X100374342Y-121981785D02*
X100469580Y-121934166D01*
X100469580Y-121934166D02*
X100517200Y-121886547D01*
X100517200Y-121886547D02*
X100564819Y-121791309D01*
X100564819Y-121791309D02*
X100564819Y-121696071D01*
X100564819Y-121696071D02*
X100517200Y-121600833D01*
X100517200Y-121600833D02*
X100469580Y-121553214D01*
X100469580Y-121553214D02*
X100374342Y-121505595D01*
X100374342Y-121505595D02*
X100183866Y-121457976D01*
X100183866Y-121457976D02*
X99945771Y-121457976D01*
X99945771Y-121457976D02*
X99755295Y-121505595D01*
X99755295Y-121505595D02*
X99660057Y-121553214D01*
X99660057Y-121553214D02*
X99612438Y-121600833D01*
X99612438Y-121600833D02*
X99564819Y-121696071D01*
X91138152Y-98730357D02*
X91995295Y-98730357D01*
X91995295Y-98730357D02*
X92090533Y-98682738D01*
X92090533Y-98682738D02*
X92138152Y-98587500D01*
X92138152Y-98587500D02*
X92138152Y-98539881D01*
X90804819Y-98730357D02*
X90852438Y-98682738D01*
X90852438Y-98682738D02*
X90900057Y-98730357D01*
X90900057Y-98730357D02*
X90852438Y-98777976D01*
X90852438Y-98777976D02*
X90804819Y-98730357D01*
X90804819Y-98730357D02*
X90900057Y-98730357D01*
X91138152Y-99635118D02*
X91804819Y-99635118D01*
X91138152Y-99206547D02*
X91661961Y-99206547D01*
X91661961Y-99206547D02*
X91757200Y-99254166D01*
X91757200Y-99254166D02*
X91804819Y-99349404D01*
X91804819Y-99349404D02*
X91804819Y-99492261D01*
X91804819Y-99492261D02*
X91757200Y-99587499D01*
X91757200Y-99587499D02*
X91709580Y-99635118D01*
X91804819Y-100111309D02*
X91138152Y-100111309D01*
X91233390Y-100111309D02*
X91185771Y-100158928D01*
X91185771Y-100158928D02*
X91138152Y-100254166D01*
X91138152Y-100254166D02*
X91138152Y-100397023D01*
X91138152Y-100397023D02*
X91185771Y-100492261D01*
X91185771Y-100492261D02*
X91281009Y-100539880D01*
X91281009Y-100539880D02*
X91804819Y-100539880D01*
X91281009Y-100539880D02*
X91185771Y-100587499D01*
X91185771Y-100587499D02*
X91138152Y-100682737D01*
X91138152Y-100682737D02*
X91138152Y-100825594D01*
X91138152Y-100825594D02*
X91185771Y-100920833D01*
X91185771Y-100920833D02*
X91281009Y-100968452D01*
X91281009Y-100968452D02*
X91804819Y-100968452D01*
X91138152Y-101444642D02*
X92138152Y-101444642D01*
X91185771Y-101444642D02*
X91138152Y-101539880D01*
X91138152Y-101539880D02*
X91138152Y-101730356D01*
X91138152Y-101730356D02*
X91185771Y-101825594D01*
X91185771Y-101825594D02*
X91233390Y-101873213D01*
X91233390Y-101873213D02*
X91328628Y-101920832D01*
X91328628Y-101920832D02*
X91614342Y-101920832D01*
X91614342Y-101920832D02*
X91709580Y-101873213D01*
X91709580Y-101873213D02*
X91757200Y-101825594D01*
X91757200Y-101825594D02*
X91804819Y-101730356D01*
X91804819Y-101730356D02*
X91804819Y-101539880D01*
X91804819Y-101539880D02*
X91757200Y-101444642D01*
X91757200Y-102730356D02*
X91804819Y-102635118D01*
X91804819Y-102635118D02*
X91804819Y-102444642D01*
X91804819Y-102444642D02*
X91757200Y-102349404D01*
X91757200Y-102349404D02*
X91661961Y-102301785D01*
X91661961Y-102301785D02*
X91281009Y-102301785D01*
X91281009Y-102301785D02*
X91185771Y-102349404D01*
X91185771Y-102349404D02*
X91138152Y-102444642D01*
X91138152Y-102444642D02*
X91138152Y-102635118D01*
X91138152Y-102635118D02*
X91185771Y-102730356D01*
X91185771Y-102730356D02*
X91281009Y-102777975D01*
X91281009Y-102777975D02*
X91376247Y-102777975D01*
X91376247Y-102777975D02*
X91471485Y-102301785D01*
X91804819Y-103206547D02*
X91138152Y-103206547D01*
X91328628Y-103206547D02*
X91233390Y-103254166D01*
X91233390Y-103254166D02*
X91185771Y-103301785D01*
X91185771Y-103301785D02*
X91138152Y-103397023D01*
X91138152Y-103397023D02*
X91138152Y-103492261D01*
X91423866Y-103825595D02*
X91423866Y-104587500D01*
X91804819Y-105492261D02*
X90804819Y-105492261D01*
X91757200Y-105492261D02*
X91804819Y-105397023D01*
X91804819Y-105397023D02*
X91804819Y-105206547D01*
X91804819Y-105206547D02*
X91757200Y-105111309D01*
X91757200Y-105111309D02*
X91709580Y-105063690D01*
X91709580Y-105063690D02*
X91614342Y-105016071D01*
X91614342Y-105016071D02*
X91328628Y-105016071D01*
X91328628Y-105016071D02*
X91233390Y-105063690D01*
X91233390Y-105063690D02*
X91185771Y-105111309D01*
X91185771Y-105111309D02*
X91138152Y-105206547D01*
X91138152Y-105206547D02*
X91138152Y-105397023D01*
X91138152Y-105397023D02*
X91185771Y-105492261D01*
X91804819Y-106492261D02*
X91804819Y-105920833D01*
X91804819Y-106206547D02*
X90804819Y-106206547D01*
X90804819Y-106206547D02*
X90947676Y-106111309D01*
X90947676Y-106111309D02*
X91042914Y-106016071D01*
X91042914Y-106016071D02*
X91090533Y-105920833D01*
X103230357Y-120104819D02*
X103563690Y-119628628D01*
X103801785Y-120104819D02*
X103801785Y-119104819D01*
X103801785Y-119104819D02*
X103420833Y-119104819D01*
X103420833Y-119104819D02*
X103325595Y-119152438D01*
X103325595Y-119152438D02*
X103277976Y-119200057D01*
X103277976Y-119200057D02*
X103230357Y-119295295D01*
X103230357Y-119295295D02*
X103230357Y-119438152D01*
X103230357Y-119438152D02*
X103277976Y-119533390D01*
X103277976Y-119533390D02*
X103325595Y-119581009D01*
X103325595Y-119581009D02*
X103420833Y-119628628D01*
X103420833Y-119628628D02*
X103801785Y-119628628D01*
X102277976Y-120104819D02*
X102849404Y-120104819D01*
X102563690Y-120104819D02*
X102563690Y-119104819D01*
X102563690Y-119104819D02*
X102658928Y-119247676D01*
X102658928Y-119247676D02*
X102754166Y-119342914D01*
X102754166Y-119342914D02*
X102849404Y-119390533D01*
X101325595Y-120104819D02*
X101897023Y-120104819D01*
X101611309Y-120104819D02*
X101611309Y-119104819D01*
X101611309Y-119104819D02*
X101706547Y-119247676D01*
X101706547Y-119247676D02*
X101801785Y-119342914D01*
X101801785Y-119342914D02*
X101897023Y-119390533D01*
X97054819Y-101257142D02*
X96578628Y-100923809D01*
X97054819Y-100685714D02*
X96054819Y-100685714D01*
X96054819Y-100685714D02*
X96054819Y-101066666D01*
X96054819Y-101066666D02*
X96102438Y-101161904D01*
X96102438Y-101161904D02*
X96150057Y-101209523D01*
X96150057Y-101209523D02*
X96245295Y-101257142D01*
X96245295Y-101257142D02*
X96388152Y-101257142D01*
X96388152Y-101257142D02*
X96483390Y-101209523D01*
X96483390Y-101209523D02*
X96531009Y-101161904D01*
X96531009Y-101161904D02*
X96578628Y-101066666D01*
X96578628Y-101066666D02*
X96578628Y-100685714D01*
X97054819Y-102209523D02*
X97054819Y-101638095D01*
X97054819Y-101923809D02*
X96054819Y-101923809D01*
X96054819Y-101923809D02*
X96197676Y-101828571D01*
X96197676Y-101828571D02*
X96292914Y-101733333D01*
X96292914Y-101733333D02*
X96340533Y-101638095D01*
X96054819Y-102542857D02*
X96054819Y-103161904D01*
X96054819Y-103161904D02*
X96435771Y-102828571D01*
X96435771Y-102828571D02*
X96435771Y-102971428D01*
X96435771Y-102971428D02*
X96483390Y-103066666D01*
X96483390Y-103066666D02*
X96531009Y-103114285D01*
X96531009Y-103114285D02*
X96626247Y-103161904D01*
X96626247Y-103161904D02*
X96864342Y-103161904D01*
X96864342Y-103161904D02*
X96959580Y-103114285D01*
X96959580Y-103114285D02*
X97007200Y-103066666D01*
X97007200Y-103066666D02*
X97054819Y-102971428D01*
X97054819Y-102971428D02*
X97054819Y-102685714D01*
X97054819Y-102685714D02*
X97007200Y-102590476D01*
X97007200Y-102590476D02*
X96959580Y-102542857D01*
X100981666Y-77954819D02*
X101314999Y-77478628D01*
X101553094Y-77954819D02*
X101553094Y-76954819D01*
X101553094Y-76954819D02*
X101172142Y-76954819D01*
X101172142Y-76954819D02*
X101076904Y-77002438D01*
X101076904Y-77002438D02*
X101029285Y-77050057D01*
X101029285Y-77050057D02*
X100981666Y-77145295D01*
X100981666Y-77145295D02*
X100981666Y-77288152D01*
X100981666Y-77288152D02*
X101029285Y-77383390D01*
X101029285Y-77383390D02*
X101076904Y-77431009D01*
X101076904Y-77431009D02*
X101172142Y-77478628D01*
X101172142Y-77478628D02*
X101553094Y-77478628D01*
X100600713Y-77050057D02*
X100553094Y-77002438D01*
X100553094Y-77002438D02*
X100457856Y-76954819D01*
X100457856Y-76954819D02*
X100219761Y-76954819D01*
X100219761Y-76954819D02*
X100124523Y-77002438D01*
X100124523Y-77002438D02*
X100076904Y-77050057D01*
X100076904Y-77050057D02*
X100029285Y-77145295D01*
X100029285Y-77145295D02*
X100029285Y-77240533D01*
X100029285Y-77240533D02*
X100076904Y-77383390D01*
X100076904Y-77383390D02*
X100648332Y-77954819D01*
X100648332Y-77954819D02*
X100029285Y-77954819D01*
X98314819Y-66279048D02*
X97314819Y-66279048D01*
X98314819Y-67326666D02*
X97838628Y-66993333D01*
X98314819Y-66755238D02*
X97314819Y-66755238D01*
X97314819Y-66755238D02*
X97314819Y-67136190D01*
X97314819Y-67136190D02*
X97362438Y-67231428D01*
X97362438Y-67231428D02*
X97410057Y-67279047D01*
X97410057Y-67279047D02*
X97505295Y-67326666D01*
X97505295Y-67326666D02*
X97648152Y-67326666D01*
X97648152Y-67326666D02*
X97743390Y-67279047D01*
X97743390Y-67279047D02*
X97791009Y-67231428D01*
X97791009Y-67231428D02*
X97838628Y-67136190D01*
X97838628Y-67136190D02*
X97838628Y-66755238D01*
X98314819Y-68231428D02*
X98314819Y-67755238D01*
X98314819Y-67755238D02*
X97314819Y-67755238D01*
X98314819Y-69136190D02*
X97838628Y-68802857D01*
X98314819Y-68564762D02*
X97314819Y-68564762D01*
X97314819Y-68564762D02*
X97314819Y-68945714D01*
X97314819Y-68945714D02*
X97362438Y-69040952D01*
X97362438Y-69040952D02*
X97410057Y-69088571D01*
X97410057Y-69088571D02*
X97505295Y-69136190D01*
X97505295Y-69136190D02*
X97648152Y-69136190D01*
X97648152Y-69136190D02*
X97743390Y-69088571D01*
X97743390Y-69088571D02*
X97791009Y-69040952D01*
X97791009Y-69040952D02*
X97838628Y-68945714D01*
X97838628Y-68945714D02*
X97838628Y-68564762D01*
X98314819Y-70088571D02*
X98314819Y-69517143D01*
X98314819Y-69802857D02*
X97314819Y-69802857D01*
X97314819Y-69802857D02*
X97457676Y-69707619D01*
X97457676Y-69707619D02*
X97552914Y-69612381D01*
X97552914Y-69612381D02*
X97600533Y-69517143D01*
X110857738Y-90500057D02*
X110952976Y-90452438D01*
X110952976Y-90452438D02*
X111048214Y-90357200D01*
X111048214Y-90357200D02*
X111191071Y-90214342D01*
X111191071Y-90214342D02*
X111286309Y-90166723D01*
X111286309Y-90166723D02*
X111381547Y-90166723D01*
X111333928Y-90404819D02*
X111429166Y-90357200D01*
X111429166Y-90357200D02*
X111524404Y-90261961D01*
X111524404Y-90261961D02*
X111572023Y-90071485D01*
X111572023Y-90071485D02*
X111572023Y-89738152D01*
X111572023Y-89738152D02*
X111524404Y-89547676D01*
X111524404Y-89547676D02*
X111429166Y-89452438D01*
X111429166Y-89452438D02*
X111333928Y-89404819D01*
X111333928Y-89404819D02*
X111143452Y-89404819D01*
X111143452Y-89404819D02*
X111048214Y-89452438D01*
X111048214Y-89452438D02*
X110952976Y-89547676D01*
X110952976Y-89547676D02*
X110905357Y-89738152D01*
X110905357Y-89738152D02*
X110905357Y-90071485D01*
X110905357Y-90071485D02*
X110952976Y-90261961D01*
X110952976Y-90261961D02*
X111048214Y-90357200D01*
X111048214Y-90357200D02*
X111143452Y-90404819D01*
X111143452Y-90404819D02*
X111333928Y-90404819D01*
X110572023Y-89404819D02*
X109952976Y-89404819D01*
X109952976Y-89404819D02*
X110286309Y-89785771D01*
X110286309Y-89785771D02*
X110143452Y-89785771D01*
X110143452Y-89785771D02*
X110048214Y-89833390D01*
X110048214Y-89833390D02*
X110000595Y-89881009D01*
X110000595Y-89881009D02*
X109952976Y-89976247D01*
X109952976Y-89976247D02*
X109952976Y-90214342D01*
X109952976Y-90214342D02*
X110000595Y-90309580D01*
X110000595Y-90309580D02*
X110048214Y-90357200D01*
X110048214Y-90357200D02*
X110143452Y-90404819D01*
X110143452Y-90404819D02*
X110429166Y-90404819D01*
X110429166Y-90404819D02*
X110524404Y-90357200D01*
X110524404Y-90357200D02*
X110572023Y-90309580D01*
X100457738Y-90300057D02*
X100552976Y-90252438D01*
X100552976Y-90252438D02*
X100648214Y-90157200D01*
X100648214Y-90157200D02*
X100791071Y-90014342D01*
X100791071Y-90014342D02*
X100886309Y-89966723D01*
X100886309Y-89966723D02*
X100981547Y-89966723D01*
X100933928Y-90204819D02*
X101029166Y-90157200D01*
X101029166Y-90157200D02*
X101124404Y-90061961D01*
X101124404Y-90061961D02*
X101172023Y-89871485D01*
X101172023Y-89871485D02*
X101172023Y-89538152D01*
X101172023Y-89538152D02*
X101124404Y-89347676D01*
X101124404Y-89347676D02*
X101029166Y-89252438D01*
X101029166Y-89252438D02*
X100933928Y-89204819D01*
X100933928Y-89204819D02*
X100743452Y-89204819D01*
X100743452Y-89204819D02*
X100648214Y-89252438D01*
X100648214Y-89252438D02*
X100552976Y-89347676D01*
X100552976Y-89347676D02*
X100505357Y-89538152D01*
X100505357Y-89538152D02*
X100505357Y-89871485D01*
X100505357Y-89871485D02*
X100552976Y-90061961D01*
X100552976Y-90061961D02*
X100648214Y-90157200D01*
X100648214Y-90157200D02*
X100743452Y-90204819D01*
X100743452Y-90204819D02*
X100933928Y-90204819D01*
X100124404Y-89300057D02*
X100076785Y-89252438D01*
X100076785Y-89252438D02*
X99981547Y-89204819D01*
X99981547Y-89204819D02*
X99743452Y-89204819D01*
X99743452Y-89204819D02*
X99648214Y-89252438D01*
X99648214Y-89252438D02*
X99600595Y-89300057D01*
X99600595Y-89300057D02*
X99552976Y-89395295D01*
X99552976Y-89395295D02*
X99552976Y-89490533D01*
X99552976Y-89490533D02*
X99600595Y-89633390D01*
X99600595Y-89633390D02*
X100172023Y-90204819D01*
X100172023Y-90204819D02*
X99552976Y-90204819D01*
X114594819Y-70628095D02*
X115404342Y-70628095D01*
X115404342Y-70628095D02*
X115499580Y-70675714D01*
X115499580Y-70675714D02*
X115547200Y-70723333D01*
X115547200Y-70723333D02*
X115594819Y-70818571D01*
X115594819Y-70818571D02*
X115594819Y-71009047D01*
X115594819Y-71009047D02*
X115547200Y-71104285D01*
X115547200Y-71104285D02*
X115499580Y-71151904D01*
X115499580Y-71151904D02*
X115404342Y-71199523D01*
X115404342Y-71199523D02*
X114594819Y-71199523D01*
X114594819Y-72104285D02*
X114594819Y-71913809D01*
X114594819Y-71913809D02*
X114642438Y-71818571D01*
X114642438Y-71818571D02*
X114690057Y-71770952D01*
X114690057Y-71770952D02*
X114832914Y-71675714D01*
X114832914Y-71675714D02*
X115023390Y-71628095D01*
X115023390Y-71628095D02*
X115404342Y-71628095D01*
X115404342Y-71628095D02*
X115499580Y-71675714D01*
X115499580Y-71675714D02*
X115547200Y-71723333D01*
X115547200Y-71723333D02*
X115594819Y-71818571D01*
X115594819Y-71818571D02*
X115594819Y-72009047D01*
X115594819Y-72009047D02*
X115547200Y-72104285D01*
X115547200Y-72104285D02*
X115499580Y-72151904D01*
X115499580Y-72151904D02*
X115404342Y-72199523D01*
X115404342Y-72199523D02*
X115166247Y-72199523D01*
X115166247Y-72199523D02*
X115071009Y-72151904D01*
X115071009Y-72151904D02*
X115023390Y-72104285D01*
X115023390Y-72104285D02*
X114975771Y-72009047D01*
X114975771Y-72009047D02*
X114975771Y-71818571D01*
X114975771Y-71818571D02*
X115023390Y-71723333D01*
X115023390Y-71723333D02*
X115071009Y-71675714D01*
X115071009Y-71675714D02*
X115166247Y-71628095D01*
X86994166Y-80504819D02*
X87327499Y-80028628D01*
X87565594Y-80504819D02*
X87565594Y-79504819D01*
X87565594Y-79504819D02*
X87184642Y-79504819D01*
X87184642Y-79504819D02*
X87089404Y-79552438D01*
X87089404Y-79552438D02*
X87041785Y-79600057D01*
X87041785Y-79600057D02*
X86994166Y-79695295D01*
X86994166Y-79695295D02*
X86994166Y-79838152D01*
X86994166Y-79838152D02*
X87041785Y-79933390D01*
X87041785Y-79933390D02*
X87089404Y-79981009D01*
X87089404Y-79981009D02*
X87184642Y-80028628D01*
X87184642Y-80028628D02*
X87565594Y-80028628D01*
X86422737Y-79933390D02*
X86517975Y-79885771D01*
X86517975Y-79885771D02*
X86565594Y-79838152D01*
X86565594Y-79838152D02*
X86613213Y-79742914D01*
X86613213Y-79742914D02*
X86613213Y-79695295D01*
X86613213Y-79695295D02*
X86565594Y-79600057D01*
X86565594Y-79600057D02*
X86517975Y-79552438D01*
X86517975Y-79552438D02*
X86422737Y-79504819D01*
X86422737Y-79504819D02*
X86232261Y-79504819D01*
X86232261Y-79504819D02*
X86137023Y-79552438D01*
X86137023Y-79552438D02*
X86089404Y-79600057D01*
X86089404Y-79600057D02*
X86041785Y-79695295D01*
X86041785Y-79695295D02*
X86041785Y-79742914D01*
X86041785Y-79742914D02*
X86089404Y-79838152D01*
X86089404Y-79838152D02*
X86137023Y-79885771D01*
X86137023Y-79885771D02*
X86232261Y-79933390D01*
X86232261Y-79933390D02*
X86422737Y-79933390D01*
X86422737Y-79933390D02*
X86517975Y-79981009D01*
X86517975Y-79981009D02*
X86565594Y-80028628D01*
X86565594Y-80028628D02*
X86613213Y-80123866D01*
X86613213Y-80123866D02*
X86613213Y-80314342D01*
X86613213Y-80314342D02*
X86565594Y-80409580D01*
X86565594Y-80409580D02*
X86517975Y-80457200D01*
X86517975Y-80457200D02*
X86422737Y-80504819D01*
X86422737Y-80504819D02*
X86232261Y-80504819D01*
X86232261Y-80504819D02*
X86137023Y-80457200D01*
X86137023Y-80457200D02*
X86089404Y-80409580D01*
X86089404Y-80409580D02*
X86041785Y-80314342D01*
X86041785Y-80314342D02*
X86041785Y-80123866D01*
X86041785Y-80123866D02*
X86089404Y-80028628D01*
X86089404Y-80028628D02*
X86137023Y-79981009D01*
X86137023Y-79981009D02*
X86232261Y-79933390D01*
X90157738Y-90200057D02*
X90252976Y-90152438D01*
X90252976Y-90152438D02*
X90348214Y-90057200D01*
X90348214Y-90057200D02*
X90491071Y-89914342D01*
X90491071Y-89914342D02*
X90586309Y-89866723D01*
X90586309Y-89866723D02*
X90681547Y-89866723D01*
X90633928Y-90104819D02*
X90729166Y-90057200D01*
X90729166Y-90057200D02*
X90824404Y-89961961D01*
X90824404Y-89961961D02*
X90872023Y-89771485D01*
X90872023Y-89771485D02*
X90872023Y-89438152D01*
X90872023Y-89438152D02*
X90824404Y-89247676D01*
X90824404Y-89247676D02*
X90729166Y-89152438D01*
X90729166Y-89152438D02*
X90633928Y-89104819D01*
X90633928Y-89104819D02*
X90443452Y-89104819D01*
X90443452Y-89104819D02*
X90348214Y-89152438D01*
X90348214Y-89152438D02*
X90252976Y-89247676D01*
X90252976Y-89247676D02*
X90205357Y-89438152D01*
X90205357Y-89438152D02*
X90205357Y-89771485D01*
X90205357Y-89771485D02*
X90252976Y-89961961D01*
X90252976Y-89961961D02*
X90348214Y-90057200D01*
X90348214Y-90057200D02*
X90443452Y-90104819D01*
X90443452Y-90104819D02*
X90633928Y-90104819D01*
X89252976Y-90104819D02*
X89824404Y-90104819D01*
X89538690Y-90104819D02*
X89538690Y-89104819D01*
X89538690Y-89104819D02*
X89633928Y-89247676D01*
X89633928Y-89247676D02*
X89729166Y-89342914D01*
X89729166Y-89342914D02*
X89824404Y-89390533D01*
X96379166Y-76554819D02*
X96712499Y-76078628D01*
X96950594Y-76554819D02*
X96950594Y-75554819D01*
X96950594Y-75554819D02*
X96569642Y-75554819D01*
X96569642Y-75554819D02*
X96474404Y-75602438D01*
X96474404Y-75602438D02*
X96426785Y-75650057D01*
X96426785Y-75650057D02*
X96379166Y-75745295D01*
X96379166Y-75745295D02*
X96379166Y-75888152D01*
X96379166Y-75888152D02*
X96426785Y-75983390D01*
X96426785Y-75983390D02*
X96474404Y-76031009D01*
X96474404Y-76031009D02*
X96569642Y-76078628D01*
X96569642Y-76078628D02*
X96950594Y-76078628D01*
X95522023Y-75554819D02*
X95712499Y-75554819D01*
X95712499Y-75554819D02*
X95807737Y-75602438D01*
X95807737Y-75602438D02*
X95855356Y-75650057D01*
X95855356Y-75650057D02*
X95950594Y-75792914D01*
X95950594Y-75792914D02*
X95998213Y-75983390D01*
X95998213Y-75983390D02*
X95998213Y-76364342D01*
X95998213Y-76364342D02*
X95950594Y-76459580D01*
X95950594Y-76459580D02*
X95902975Y-76507200D01*
X95902975Y-76507200D02*
X95807737Y-76554819D01*
X95807737Y-76554819D02*
X95617261Y-76554819D01*
X95617261Y-76554819D02*
X95522023Y-76507200D01*
X95522023Y-76507200D02*
X95474404Y-76459580D01*
X95474404Y-76459580D02*
X95426785Y-76364342D01*
X95426785Y-76364342D02*
X95426785Y-76126247D01*
X95426785Y-76126247D02*
X95474404Y-76031009D01*
X95474404Y-76031009D02*
X95522023Y-75983390D01*
X95522023Y-75983390D02*
X95617261Y-75935771D01*
X95617261Y-75935771D02*
X95807737Y-75935771D01*
X95807737Y-75935771D02*
X95902975Y-75983390D01*
X95902975Y-75983390D02*
X95950594Y-76031009D01*
X95950594Y-76031009D02*
X95998213Y-76126247D01*
X104466785Y-76754819D02*
X104466785Y-77469104D01*
X104466785Y-77469104D02*
X104514404Y-77611961D01*
X104514404Y-77611961D02*
X104609642Y-77707200D01*
X104609642Y-77707200D02*
X104752499Y-77754819D01*
X104752499Y-77754819D02*
X104847737Y-77754819D01*
X103562023Y-77088152D02*
X103562023Y-77754819D01*
X103990594Y-77088152D02*
X103990594Y-77611961D01*
X103990594Y-77611961D02*
X103942975Y-77707200D01*
X103942975Y-77707200D02*
X103847737Y-77754819D01*
X103847737Y-77754819D02*
X103704880Y-77754819D01*
X103704880Y-77754819D02*
X103609642Y-77707200D01*
X103609642Y-77707200D02*
X103562023Y-77659580D01*
X103085832Y-77754819D02*
X103085832Y-77088152D01*
X103085832Y-77183390D02*
X103038213Y-77135771D01*
X103038213Y-77135771D02*
X102942975Y-77088152D01*
X102942975Y-77088152D02*
X102800118Y-77088152D01*
X102800118Y-77088152D02*
X102704880Y-77135771D01*
X102704880Y-77135771D02*
X102657261Y-77231009D01*
X102657261Y-77231009D02*
X102657261Y-77754819D01*
X102657261Y-77231009D02*
X102609642Y-77135771D01*
X102609642Y-77135771D02*
X102514404Y-77088152D01*
X102514404Y-77088152D02*
X102371547Y-77088152D01*
X102371547Y-77088152D02*
X102276308Y-77135771D01*
X102276308Y-77135771D02*
X102228689Y-77231009D01*
X102228689Y-77231009D02*
X102228689Y-77754819D01*
X101752499Y-77088152D02*
X101752499Y-78088152D01*
X101752499Y-77135771D02*
X101657261Y-77088152D01*
X101657261Y-77088152D02*
X101466785Y-77088152D01*
X101466785Y-77088152D02*
X101371547Y-77135771D01*
X101371547Y-77135771D02*
X101323928Y-77183390D01*
X101323928Y-77183390D02*
X101276309Y-77278628D01*
X101276309Y-77278628D02*
X101276309Y-77564342D01*
X101276309Y-77564342D02*
X101323928Y-77659580D01*
X101323928Y-77659580D02*
X101371547Y-77707200D01*
X101371547Y-77707200D02*
X101466785Y-77754819D01*
X101466785Y-77754819D02*
X101657261Y-77754819D01*
X101657261Y-77754819D02*
X101752499Y-77707200D01*
X100466785Y-77707200D02*
X100562023Y-77754819D01*
X100562023Y-77754819D02*
X100752499Y-77754819D01*
X100752499Y-77754819D02*
X100847737Y-77707200D01*
X100847737Y-77707200D02*
X100895356Y-77611961D01*
X100895356Y-77611961D02*
X100895356Y-77231009D01*
X100895356Y-77231009D02*
X100847737Y-77135771D01*
X100847737Y-77135771D02*
X100752499Y-77088152D01*
X100752499Y-77088152D02*
X100562023Y-77088152D01*
X100562023Y-77088152D02*
X100466785Y-77135771D01*
X100466785Y-77135771D02*
X100419166Y-77231009D01*
X100419166Y-77231009D02*
X100419166Y-77326247D01*
X100419166Y-77326247D02*
X100895356Y-77421485D01*
X99990594Y-77754819D02*
X99990594Y-77088152D01*
X99990594Y-77278628D02*
X99942975Y-77183390D01*
X99942975Y-77183390D02*
X99895356Y-77135771D01*
X99895356Y-77135771D02*
X99800118Y-77088152D01*
X99800118Y-77088152D02*
X99704880Y-77088152D01*
X99371546Y-77373866D02*
X98609642Y-77373866D01*
X97704880Y-77754819D02*
X97704880Y-76754819D01*
X97704880Y-77707200D02*
X97800118Y-77754819D01*
X97800118Y-77754819D02*
X97990594Y-77754819D01*
X97990594Y-77754819D02*
X98085832Y-77707200D01*
X98085832Y-77707200D02*
X98133451Y-77659580D01*
X98133451Y-77659580D02*
X98181070Y-77564342D01*
X98181070Y-77564342D02*
X98181070Y-77278628D01*
X98181070Y-77278628D02*
X98133451Y-77183390D01*
X98133451Y-77183390D02*
X98085832Y-77135771D01*
X98085832Y-77135771D02*
X97990594Y-77088152D01*
X97990594Y-77088152D02*
X97800118Y-77088152D01*
X97800118Y-77088152D02*
X97704880Y-77135771D01*
X96752499Y-76754819D02*
X97228689Y-76754819D01*
X97228689Y-76754819D02*
X97276308Y-77231009D01*
X97276308Y-77231009D02*
X97228689Y-77183390D01*
X97228689Y-77183390D02*
X97133451Y-77135771D01*
X97133451Y-77135771D02*
X96895356Y-77135771D01*
X96895356Y-77135771D02*
X96800118Y-77183390D01*
X96800118Y-77183390D02*
X96752499Y-77231009D01*
X96752499Y-77231009D02*
X96704880Y-77326247D01*
X96704880Y-77326247D02*
X96704880Y-77564342D01*
X96704880Y-77564342D02*
X96752499Y-77659580D01*
X96752499Y-77659580D02*
X96800118Y-77707200D01*
X96800118Y-77707200D02*
X96895356Y-77754819D01*
X96895356Y-77754819D02*
X97133451Y-77754819D01*
X97133451Y-77754819D02*
X97228689Y-77707200D01*
X97228689Y-77707200D02*
X97276308Y-77659580D01*
X99730357Y-120104819D02*
X100063690Y-119628628D01*
X100301785Y-120104819D02*
X100301785Y-119104819D01*
X100301785Y-119104819D02*
X99920833Y-119104819D01*
X99920833Y-119104819D02*
X99825595Y-119152438D01*
X99825595Y-119152438D02*
X99777976Y-119200057D01*
X99777976Y-119200057D02*
X99730357Y-119295295D01*
X99730357Y-119295295D02*
X99730357Y-119438152D01*
X99730357Y-119438152D02*
X99777976Y-119533390D01*
X99777976Y-119533390D02*
X99825595Y-119581009D01*
X99825595Y-119581009D02*
X99920833Y-119628628D01*
X99920833Y-119628628D02*
X100301785Y-119628628D01*
X98777976Y-120104819D02*
X99349404Y-120104819D01*
X99063690Y-120104819D02*
X99063690Y-119104819D01*
X99063690Y-119104819D02*
X99158928Y-119247676D01*
X99158928Y-119247676D02*
X99254166Y-119342914D01*
X99254166Y-119342914D02*
X99349404Y-119390533D01*
X98397023Y-119200057D02*
X98349404Y-119152438D01*
X98349404Y-119152438D02*
X98254166Y-119104819D01*
X98254166Y-119104819D02*
X98016071Y-119104819D01*
X98016071Y-119104819D02*
X97920833Y-119152438D01*
X97920833Y-119152438D02*
X97873214Y-119200057D01*
X97873214Y-119200057D02*
X97825595Y-119295295D01*
X97825595Y-119295295D02*
X97825595Y-119390533D01*
X97825595Y-119390533D02*
X97873214Y-119533390D01*
X97873214Y-119533390D02*
X98444642Y-120104819D01*
X98444642Y-120104819D02*
X97825595Y-120104819D01*
X97119819Y-76933333D02*
X96643628Y-76600000D01*
X97119819Y-76361905D02*
X96119819Y-76361905D01*
X96119819Y-76361905D02*
X96119819Y-76742857D01*
X96119819Y-76742857D02*
X96167438Y-76838095D01*
X96167438Y-76838095D02*
X96215057Y-76885714D01*
X96215057Y-76885714D02*
X96310295Y-76933333D01*
X96310295Y-76933333D02*
X96453152Y-76933333D01*
X96453152Y-76933333D02*
X96548390Y-76885714D01*
X96548390Y-76885714D02*
X96596009Y-76838095D01*
X96596009Y-76838095D02*
X96643628Y-76742857D01*
X96643628Y-76742857D02*
X96643628Y-76361905D01*
X97119819Y-77885714D02*
X97119819Y-77314286D01*
X97119819Y-77600000D02*
X96119819Y-77600000D01*
X96119819Y-77600000D02*
X96262676Y-77504762D01*
X96262676Y-77504762D02*
X96357914Y-77409524D01*
X96357914Y-77409524D02*
X96405533Y-77314286D01*
X89392319Y-73285714D02*
X90106604Y-73285714D01*
X90106604Y-73285714D02*
X90249461Y-73238095D01*
X90249461Y-73238095D02*
X90344700Y-73142857D01*
X90344700Y-73142857D02*
X90392319Y-73000000D01*
X90392319Y-73000000D02*
X90392319Y-72904762D01*
X89725652Y-74190476D02*
X90392319Y-74190476D01*
X89725652Y-73761905D02*
X90249461Y-73761905D01*
X90249461Y-73761905D02*
X90344700Y-73809524D01*
X90344700Y-73809524D02*
X90392319Y-73904762D01*
X90392319Y-73904762D02*
X90392319Y-74047619D01*
X90392319Y-74047619D02*
X90344700Y-74142857D01*
X90344700Y-74142857D02*
X90297080Y-74190476D01*
X90392319Y-74666667D02*
X89725652Y-74666667D01*
X89820890Y-74666667D02*
X89773271Y-74714286D01*
X89773271Y-74714286D02*
X89725652Y-74809524D01*
X89725652Y-74809524D02*
X89725652Y-74952381D01*
X89725652Y-74952381D02*
X89773271Y-75047619D01*
X89773271Y-75047619D02*
X89868509Y-75095238D01*
X89868509Y-75095238D02*
X90392319Y-75095238D01*
X89868509Y-75095238D02*
X89773271Y-75142857D01*
X89773271Y-75142857D02*
X89725652Y-75238095D01*
X89725652Y-75238095D02*
X89725652Y-75380952D01*
X89725652Y-75380952D02*
X89773271Y-75476191D01*
X89773271Y-75476191D02*
X89868509Y-75523810D01*
X89868509Y-75523810D02*
X90392319Y-75523810D01*
X89725652Y-76000000D02*
X90725652Y-76000000D01*
X89773271Y-76000000D02*
X89725652Y-76095238D01*
X89725652Y-76095238D02*
X89725652Y-76285714D01*
X89725652Y-76285714D02*
X89773271Y-76380952D01*
X89773271Y-76380952D02*
X89820890Y-76428571D01*
X89820890Y-76428571D02*
X89916128Y-76476190D01*
X89916128Y-76476190D02*
X90201842Y-76476190D01*
X90201842Y-76476190D02*
X90297080Y-76428571D01*
X90297080Y-76428571D02*
X90344700Y-76380952D01*
X90344700Y-76380952D02*
X90392319Y-76285714D01*
X90392319Y-76285714D02*
X90392319Y-76095238D01*
X90392319Y-76095238D02*
X90344700Y-76000000D01*
X90344700Y-77285714D02*
X90392319Y-77190476D01*
X90392319Y-77190476D02*
X90392319Y-77000000D01*
X90392319Y-77000000D02*
X90344700Y-76904762D01*
X90344700Y-76904762D02*
X90249461Y-76857143D01*
X90249461Y-76857143D02*
X89868509Y-76857143D01*
X89868509Y-76857143D02*
X89773271Y-76904762D01*
X89773271Y-76904762D02*
X89725652Y-77000000D01*
X89725652Y-77000000D02*
X89725652Y-77190476D01*
X89725652Y-77190476D02*
X89773271Y-77285714D01*
X89773271Y-77285714D02*
X89868509Y-77333333D01*
X89868509Y-77333333D02*
X89963747Y-77333333D01*
X89963747Y-77333333D02*
X90058985Y-76857143D01*
X90392319Y-77761905D02*
X89725652Y-77761905D01*
X89916128Y-77761905D02*
X89820890Y-77809524D01*
X89820890Y-77809524D02*
X89773271Y-77857143D01*
X89773271Y-77857143D02*
X89725652Y-77952381D01*
X89725652Y-77952381D02*
X89725652Y-78047619D01*
X90011366Y-78380953D02*
X90011366Y-79142858D01*
X90392319Y-80047619D02*
X89392319Y-80047619D01*
X90344700Y-80047619D02*
X90392319Y-79952381D01*
X90392319Y-79952381D02*
X90392319Y-79761905D01*
X90392319Y-79761905D02*
X90344700Y-79666667D01*
X90344700Y-79666667D02*
X90297080Y-79619048D01*
X90297080Y-79619048D02*
X90201842Y-79571429D01*
X90201842Y-79571429D02*
X89916128Y-79571429D01*
X89916128Y-79571429D02*
X89820890Y-79619048D01*
X89820890Y-79619048D02*
X89773271Y-79666667D01*
X89773271Y-79666667D02*
X89725652Y-79761905D01*
X89725652Y-79761905D02*
X89725652Y-79952381D01*
X89725652Y-79952381D02*
X89773271Y-80047619D01*
X89392319Y-80952381D02*
X89392319Y-80761905D01*
X89392319Y-80761905D02*
X89439938Y-80666667D01*
X89439938Y-80666667D02*
X89487557Y-80619048D01*
X89487557Y-80619048D02*
X89630414Y-80523810D01*
X89630414Y-80523810D02*
X89820890Y-80476191D01*
X89820890Y-80476191D02*
X90201842Y-80476191D01*
X90201842Y-80476191D02*
X90297080Y-80523810D01*
X90297080Y-80523810D02*
X90344700Y-80571429D01*
X90344700Y-80571429D02*
X90392319Y-80666667D01*
X90392319Y-80666667D02*
X90392319Y-80857143D01*
X90392319Y-80857143D02*
X90344700Y-80952381D01*
X90344700Y-80952381D02*
X90297080Y-81000000D01*
X90297080Y-81000000D02*
X90201842Y-81047619D01*
X90201842Y-81047619D02*
X89963747Y-81047619D01*
X89963747Y-81047619D02*
X89868509Y-81000000D01*
X89868509Y-81000000D02*
X89820890Y-80952381D01*
X89820890Y-80952381D02*
X89773271Y-80857143D01*
X89773271Y-80857143D02*
X89773271Y-80666667D01*
X89773271Y-80666667D02*
X89820890Y-80571429D01*
X89820890Y-80571429D02*
X89868509Y-80523810D01*
X89868509Y-80523810D02*
X89963747Y-80476191D01*
X103404819Y-88044642D02*
X102928628Y-87711309D01*
X103404819Y-87473214D02*
X102404819Y-87473214D01*
X102404819Y-87473214D02*
X102404819Y-87854166D01*
X102404819Y-87854166D02*
X102452438Y-87949404D01*
X102452438Y-87949404D02*
X102500057Y-87997023D01*
X102500057Y-87997023D02*
X102595295Y-88044642D01*
X102595295Y-88044642D02*
X102738152Y-88044642D01*
X102738152Y-88044642D02*
X102833390Y-87997023D01*
X102833390Y-87997023D02*
X102881009Y-87949404D01*
X102881009Y-87949404D02*
X102928628Y-87854166D01*
X102928628Y-87854166D02*
X102928628Y-87473214D01*
X103404819Y-88997023D02*
X103404819Y-88425595D01*
X103404819Y-88711309D02*
X102404819Y-88711309D01*
X102404819Y-88711309D02*
X102547676Y-88616071D01*
X102547676Y-88616071D02*
X102642914Y-88520833D01*
X102642914Y-88520833D02*
X102690533Y-88425595D01*
X102833390Y-89568452D02*
X102785771Y-89473214D01*
X102785771Y-89473214D02*
X102738152Y-89425595D01*
X102738152Y-89425595D02*
X102642914Y-89377976D01*
X102642914Y-89377976D02*
X102595295Y-89377976D01*
X102595295Y-89377976D02*
X102500057Y-89425595D01*
X102500057Y-89425595D02*
X102452438Y-89473214D01*
X102452438Y-89473214D02*
X102404819Y-89568452D01*
X102404819Y-89568452D02*
X102404819Y-89758928D01*
X102404819Y-89758928D02*
X102452438Y-89854166D01*
X102452438Y-89854166D02*
X102500057Y-89901785D01*
X102500057Y-89901785D02*
X102595295Y-89949404D01*
X102595295Y-89949404D02*
X102642914Y-89949404D01*
X102642914Y-89949404D02*
X102738152Y-89901785D01*
X102738152Y-89901785D02*
X102785771Y-89854166D01*
X102785771Y-89854166D02*
X102833390Y-89758928D01*
X102833390Y-89758928D02*
X102833390Y-89568452D01*
X102833390Y-89568452D02*
X102881009Y-89473214D01*
X102881009Y-89473214D02*
X102928628Y-89425595D01*
X102928628Y-89425595D02*
X103023866Y-89377976D01*
X103023866Y-89377976D02*
X103214342Y-89377976D01*
X103214342Y-89377976D02*
X103309580Y-89425595D01*
X103309580Y-89425595D02*
X103357200Y-89473214D01*
X103357200Y-89473214D02*
X103404819Y-89568452D01*
X103404819Y-89568452D02*
X103404819Y-89758928D01*
X103404819Y-89758928D02*
X103357200Y-89854166D01*
X103357200Y-89854166D02*
X103309580Y-89901785D01*
X103309580Y-89901785D02*
X103214342Y-89949404D01*
X103214342Y-89949404D02*
X103023866Y-89949404D01*
X103023866Y-89949404D02*
X102928628Y-89901785D01*
X102928628Y-89901785D02*
X102881009Y-89854166D01*
X102881009Y-89854166D02*
X102833390Y-89758928D01*
X86294166Y-77904819D02*
X86627499Y-77428628D01*
X86865594Y-77904819D02*
X86865594Y-76904819D01*
X86865594Y-76904819D02*
X86484642Y-76904819D01*
X86484642Y-76904819D02*
X86389404Y-76952438D01*
X86389404Y-76952438D02*
X86341785Y-77000057D01*
X86341785Y-77000057D02*
X86294166Y-77095295D01*
X86294166Y-77095295D02*
X86294166Y-77238152D01*
X86294166Y-77238152D02*
X86341785Y-77333390D01*
X86341785Y-77333390D02*
X86389404Y-77381009D01*
X86389404Y-77381009D02*
X86484642Y-77428628D01*
X86484642Y-77428628D02*
X86865594Y-77428628D01*
X85817975Y-77904819D02*
X85627499Y-77904819D01*
X85627499Y-77904819D02*
X85532261Y-77857200D01*
X85532261Y-77857200D02*
X85484642Y-77809580D01*
X85484642Y-77809580D02*
X85389404Y-77666723D01*
X85389404Y-77666723D02*
X85341785Y-77476247D01*
X85341785Y-77476247D02*
X85341785Y-77095295D01*
X85341785Y-77095295D02*
X85389404Y-77000057D01*
X85389404Y-77000057D02*
X85437023Y-76952438D01*
X85437023Y-76952438D02*
X85532261Y-76904819D01*
X85532261Y-76904819D02*
X85722737Y-76904819D01*
X85722737Y-76904819D02*
X85817975Y-76952438D01*
X85817975Y-76952438D02*
X85865594Y-77000057D01*
X85865594Y-77000057D02*
X85913213Y-77095295D01*
X85913213Y-77095295D02*
X85913213Y-77333390D01*
X85913213Y-77333390D02*
X85865594Y-77428628D01*
X85865594Y-77428628D02*
X85817975Y-77476247D01*
X85817975Y-77476247D02*
X85722737Y-77523866D01*
X85722737Y-77523866D02*
X85532261Y-77523866D01*
X85532261Y-77523866D02*
X85437023Y-77476247D01*
X85437023Y-77476247D02*
X85389404Y-77428628D01*
X85389404Y-77428628D02*
X85341785Y-77333390D01*
X104604819Y-111944642D02*
X104128628Y-111611309D01*
X104604819Y-111373214D02*
X103604819Y-111373214D01*
X103604819Y-111373214D02*
X103604819Y-111754166D01*
X103604819Y-111754166D02*
X103652438Y-111849404D01*
X103652438Y-111849404D02*
X103700057Y-111897023D01*
X103700057Y-111897023D02*
X103795295Y-111944642D01*
X103795295Y-111944642D02*
X103938152Y-111944642D01*
X103938152Y-111944642D02*
X104033390Y-111897023D01*
X104033390Y-111897023D02*
X104081009Y-111849404D01*
X104081009Y-111849404D02*
X104128628Y-111754166D01*
X104128628Y-111754166D02*
X104128628Y-111373214D01*
X104604819Y-112897023D02*
X104604819Y-112325595D01*
X104604819Y-112611309D02*
X103604819Y-112611309D01*
X103604819Y-112611309D02*
X103747676Y-112516071D01*
X103747676Y-112516071D02*
X103842914Y-112420833D01*
X103842914Y-112420833D02*
X103890533Y-112325595D01*
X103604819Y-113754166D02*
X103604819Y-113563690D01*
X103604819Y-113563690D02*
X103652438Y-113468452D01*
X103652438Y-113468452D02*
X103700057Y-113420833D01*
X103700057Y-113420833D02*
X103842914Y-113325595D01*
X103842914Y-113325595D02*
X104033390Y-113277976D01*
X104033390Y-113277976D02*
X104414342Y-113277976D01*
X104414342Y-113277976D02*
X104509580Y-113325595D01*
X104509580Y-113325595D02*
X104557200Y-113373214D01*
X104557200Y-113373214D02*
X104604819Y-113468452D01*
X104604819Y-113468452D02*
X104604819Y-113658928D01*
X104604819Y-113658928D02*
X104557200Y-113754166D01*
X104557200Y-113754166D02*
X104509580Y-113801785D01*
X104509580Y-113801785D02*
X104414342Y-113849404D01*
X104414342Y-113849404D02*
X104176247Y-113849404D01*
X104176247Y-113849404D02*
X104081009Y-113801785D01*
X104081009Y-113801785D02*
X104033390Y-113754166D01*
X104033390Y-113754166D02*
X103985771Y-113658928D01*
X103985771Y-113658928D02*
X103985771Y-113468452D01*
X103985771Y-113468452D02*
X104033390Y-113373214D01*
X104033390Y-113373214D02*
X104081009Y-113325595D01*
X104081009Y-113325595D02*
X104176247Y-113277976D01*
D11*
%TO.C,R14*%
X80165000Y-87860436D02*
X80165000Y-88314564D01*
X81635000Y-87860436D02*
X81635000Y-88314564D01*
%TO.C,IRLR2*%
X97115000Y-71545000D02*
X97115000Y-65125000D01*
X97385000Y-71545000D02*
X97115000Y-71545000D01*
X103745000Y-71545000D02*
X104015000Y-71545000D01*
X104015000Y-71545000D02*
X104015000Y-65125000D01*
X104035000Y-73205000D02*
X103705000Y-72965000D01*
X104035000Y-72725000D01*
X104035000Y-73205000D01*
G36*
X104035000Y-73205000D02*
G01*
X103705000Y-72965000D01*
X104035000Y-72725000D01*
X104035000Y-73205000D01*
G37*
%TO.C,IRLR3*%
X82715000Y-71545000D02*
X82715000Y-65125000D01*
X82985000Y-71545000D02*
X82715000Y-71545000D01*
X89345000Y-71545000D02*
X89615000Y-71545000D01*
X89615000Y-71545000D02*
X89615000Y-65125000D01*
X89635000Y-73205000D02*
X89305000Y-72965000D01*
X89635000Y-72725000D01*
X89635000Y-73205000D01*
G36*
X89635000Y-73205000D02*
G01*
X89305000Y-72965000D01*
X89635000Y-72725000D01*
X89635000Y-73205000D01*
G37*
%TO.C,R17*%
X90265000Y-88360436D02*
X90265000Y-88814564D01*
X91735000Y-88360436D02*
X91735000Y-88814564D01*
%TO.C,R15*%
X111065000Y-88685436D02*
X111065000Y-89139564D01*
X112535000Y-88685436D02*
X112535000Y-89139564D01*
%TO.C,Q4*%
X79312500Y-90090000D02*
X79962500Y-90090000D01*
X79312500Y-93210000D02*
X79962500Y-93210000D01*
X80612500Y-90090000D02*
X79962500Y-90090000D01*
X80612500Y-93210000D02*
X79962500Y-93210000D01*
X81125000Y-90140000D02*
X80885000Y-89810000D01*
X81365000Y-89810000D01*
X81125000Y-90140000D01*
G36*
X81125000Y-90140000D02*
G01*
X80885000Y-89810000D01*
X81365000Y-89810000D01*
X81125000Y-90140000D01*
G37*
%TO.C,R5*%
X93854564Y-77765000D02*
X93400436Y-77765000D01*
X93854564Y-79235000D02*
X93400436Y-79235000D01*
%TO.C,R10*%
X101025000Y-120994564D02*
X101025000Y-120540436D01*
X102495000Y-120994564D02*
X102495000Y-120540436D01*
%TO.C,jumper-d1*%
X92265000Y-102814564D02*
X92265000Y-102360436D01*
X93735000Y-102814564D02*
X93735000Y-102360436D01*
%TO.C,R11*%
X102814564Y-117265000D02*
X102360436Y-117265000D01*
X102814564Y-118735000D02*
X102360436Y-118735000D01*
%TO.C,R13*%
X94265000Y-102360436D02*
X94265000Y-102814564D01*
X95735000Y-102360436D02*
X95735000Y-102814564D01*
%TO.C,R2*%
X101054564Y-75065000D02*
X100600436Y-75065000D01*
X101054564Y-76535000D02*
X100600436Y-76535000D01*
%TO.C,IRLR1*%
X89910000Y-71470000D02*
X89910000Y-65050000D01*
X90180000Y-71470000D02*
X89910000Y-71470000D01*
X96540000Y-71470000D02*
X96810000Y-71470000D01*
X96810000Y-71470000D02*
X96810000Y-65050000D01*
X96830000Y-73130000D02*
X96500000Y-72890000D01*
X96830000Y-72650000D01*
X96830000Y-73130000D01*
G36*
X96830000Y-73130000D02*
G01*
X96500000Y-72890000D01*
X96830000Y-72650000D01*
X96830000Y-73130000D01*
G37*
%TO.C,Q3*%
X110112500Y-90790000D02*
X110762500Y-90790000D01*
X110112500Y-93910000D02*
X110762500Y-93910000D01*
X111412500Y-90790000D02*
X110762500Y-90790000D01*
X111412500Y-93910000D02*
X110762500Y-93910000D01*
X111925000Y-90840000D02*
X111685000Y-90510000D01*
X112165000Y-90510000D01*
X111925000Y-90840000D01*
G36*
X111925000Y-90840000D02*
G01*
X111685000Y-90510000D01*
X112165000Y-90510000D01*
X111925000Y-90840000D01*
G37*
%TO.C,Q2*%
X99712500Y-90590000D02*
X100362500Y-90590000D01*
X99712500Y-93710000D02*
X100362500Y-93710000D01*
X101012500Y-90590000D02*
X100362500Y-90590000D01*
X101012500Y-93710000D02*
X100362500Y-93710000D01*
X101525000Y-90640000D02*
X101285000Y-90310000D01*
X101765000Y-90310000D01*
X101525000Y-90640000D01*
G36*
X101525000Y-90640000D02*
G01*
X101285000Y-90310000D01*
X101765000Y-90310000D01*
X101525000Y-90640000D01*
G37*
%TO.C,U6*%
X107230000Y-69480000D02*
X107230000Y-73240000D01*
X108490000Y-69480000D02*
X107230000Y-69480000D01*
X112790000Y-69480000D02*
X114050000Y-69480000D01*
X114050000Y-69480000D02*
X114050000Y-73240000D01*
X114280000Y-74760000D02*
X113950000Y-74520000D01*
X114280000Y-74280000D01*
X114280000Y-74760000D01*
G36*
X114280000Y-74760000D02*
G01*
X113950000Y-74520000D01*
X114280000Y-74280000D01*
X114280000Y-74760000D01*
G37*
%TO.C,R8*%
X87054564Y-77665000D02*
X86600436Y-77665000D01*
X87054564Y-79135000D02*
X86600436Y-79135000D01*
%TO.C,Q1*%
X89412500Y-90490000D02*
X90062500Y-90490000D01*
X89412500Y-93610000D02*
X90062500Y-93610000D01*
X90712500Y-90490000D02*
X90062500Y-90490000D01*
X90712500Y-93610000D02*
X90062500Y-93610000D01*
X91225000Y-90540000D02*
X90985000Y-90210000D01*
X91465000Y-90210000D01*
X91225000Y-90540000D01*
G36*
X91225000Y-90540000D02*
G01*
X90985000Y-90210000D01*
X91465000Y-90210000D01*
X91225000Y-90540000D01*
G37*
%TO.C,R6*%
X93827064Y-75065000D02*
X93372936Y-75065000D01*
X93827064Y-76535000D02*
X93372936Y-76535000D01*
%TO.C,Jumper-d5*%
X101000436Y-78065000D02*
X101454564Y-78065000D01*
X101000436Y-79535000D02*
X101454564Y-79535000D01*
%TO.C,R12*%
X99314564Y-117265000D02*
X98860436Y-117265000D01*
X99314564Y-118735000D02*
X98860436Y-118735000D01*
%TO.C,R1*%
X97405000Y-77085436D02*
X97405000Y-77539564D01*
X98875000Y-77085436D02*
X98875000Y-77539564D01*
%TO.C,Jumper-d6*%
X89805000Y-76760436D02*
X89805000Y-77214564D01*
X91275000Y-76760436D02*
X91275000Y-77214564D01*
%TO.C,R18*%
X100565000Y-88460436D02*
X100565000Y-88914564D01*
X102035000Y-88460436D02*
X102035000Y-88914564D01*
%TO.C,R9*%
X86354564Y-75065000D02*
X85900436Y-75065000D01*
X86354564Y-76535000D02*
X85900436Y-76535000D01*
%TO.C,Jumper-d7*%
X82505000Y-77260436D02*
X82505000Y-77714564D01*
X83975000Y-77260436D02*
X83975000Y-77714564D01*
%TO.C,R16*%
X101765000Y-112360436D02*
X101765000Y-112814564D01*
X103235000Y-112360436D02*
X103235000Y-112814564D01*
%TD*%
M02*
