M48
; DRILL file {KiCad 8.0.5} date 2024-10-28T11:16:24+0300
; FORMAT={-:-/ absolute / inch / decimal}
; #@! TF.CreationDate,2024-10-28T11:16:24+03:00
; #@! TF.GenerationSoftware,Kicad,Pcbnew,8.0.5
; #@! TF.FileFunction,Plated,1,2,PTH
FMAT,2
INCH
; #@! TA.AperFunction,Plated,PTH,ViaDrill
T1C0.0118
; #@! TA.AperFunction,Plated,PTH,ComponentDrill
T2C0.0276
; #@! TA.AperFunction,Plated,PTH,ComponentDrill
T3C0.0295
; #@! TA.AperFunction,Plated,PTH,ComponentDrill
T4C0.0300
; #@! TA.AperFunction,Plated,PTH,ComponentDrill
T5C0.0315
; #@! TA.AperFunction,Plated,PTH,ComponentDrill
T6C0.0354
; #@! TA.AperFunction,Plated,PTH,ComponentDrill
T7C0.0394
; #@! TA.AperFunction,Plated,PTH,ComponentDrill
T8C0.0400
%
G90
G05
T1
X3.3678Y-3.7143
X3.5587Y-4.3855
X3.5808Y-3.6969
X3.8992Y-4.4931
X4.0437Y-4.3568
X4.0504Y-3.2641
X4.06Y-3.4012
X4.0605Y-3.2283
X4.1614Y-4.8263
X4.224Y-4.6904
X4.2559Y-4.2598
X4.2646Y-4.0849
X4.4697Y-3.7832
T3
X3.4646Y-5.1063
X3.5146Y-5.1063
X3.5646Y-5.1063
T4
X4.1535Y-2.4961
X4.1535Y-3.0961
X4.5134Y-2.4961
X4.5134Y-3.0961
T5
X3.1079Y-3.2992
X3.1079Y-3.7992
X3.4071Y-3.1992
X3.4071Y-3.3583
X3.4071Y-3.7953
X3.5173Y-3.2992
X3.5173Y-3.7992
X3.8165Y-3.1992
X3.8165Y-3.3583
X3.8165Y-3.7953
X3.9299Y-3.2992
X3.9299Y-3.7992
X4.2291Y-3.1992
X4.2291Y-3.3583
X4.2291Y-3.7953
X4.3362Y-3.2992
X4.3362Y-3.7992
X4.4276Y-4.0512
X4.5276Y-4.0512
X4.6276Y-4.0512
X4.6354Y-3.1992
X4.6354Y-3.3583
X4.6354Y-3.7953
T6
X4.5142Y-5.0433
X4.6142Y-5.0433
X4.7142Y-5.0433
X4.8386Y-5.0551
X4.9386Y-5.0551
T7
X3.1768Y-2.3898
X3.222Y-4.4724
X3.222Y-4.5724
X3.222Y-4.6724
X3.222Y-4.7724
X3.3268Y-2.3898
X3.4768Y-2.3898
X3.5264Y-4.4717
X3.5264Y-4.5717
X3.5264Y-4.6717
X3.5264Y-4.7717
X3.5264Y-4.8717
X3.6268Y-2.3898
X3.7768Y-2.3898
X3.8701Y-4.0276
X3.9268Y-2.3898
X3.9701Y-4.0276
X4.0701Y-4.0276
X4.0768Y-2.3898
X4.1701Y-4.0276
X4.2268Y-2.3898
X4.2701Y-4.0276
X4.3768Y-2.3898
X4.5268Y-2.3898
X4.6768Y-2.3898
X4.752Y-2.6335
X4.752Y-2.7835
X4.752Y-2.9335
X4.752Y-3.0835
X4.752Y-3.2335
X4.752Y-3.3835
X4.752Y-3.5335
X4.752Y-3.6835
X4.752Y-3.8335
X4.752Y-3.9835
X4.752Y-4.1335
X4.752Y-4.2835
X4.8268Y-2.3898
T8
X3.1299Y-2.7134
X3.1299Y-2.8134
X3.1299Y-2.9134
X3.1299Y-3.0134
T2
G00X3.1766Y-4.0472
M15
G01X3.2081Y-4.0472
M16
G05
G00X3.2947Y-4.0472
M15
G01X3.3262Y-4.0472
M16
G05
G00X3.4522Y-4.0472
M15
G01X3.4837Y-4.0472
M16
G05
G00X3.4915Y-4.2205
M15
G01X3.523Y-4.2205
M16
G05
T7
G00X4.5157Y-4.6535
M15
G01X4.5157Y-4.6142
M16
G05
G00X4.6535Y-4.4488
M15
G01X4.6142Y-4.4488
M16
G05
G00X4.7598Y-4.6535
M15
G01X4.7598Y-4.6142
M16
G05
M30
